<svg xmlns="http://www.w3.org/2000/svg" xmlns:xlink="http://www.w3.org/1999/xlink" width="250" zoomAndPan="magnify" viewBox="0 0 187.5 44.999999" height="60" preserveAspectRatio="xMidYMid meet" version="1.0"><defs><filter x="0%" y="0%" width="100%" height="100%" id="aa2b5d708f"><feColorMatrix values="0 0 0 0 1 0 0 0 0 1 0 0 0 0 1 0 0 0 1 0" color-interpolation-filters="sRGB"/></filter><g/><clipPath id="29ad2f7663"><path d="M 6 0.0585938 L 181 0.0585938 L 181 44.9375 L 6 44.9375 Z M 6 0.0585938 " clip-rule="nonzero"/></clipPath><mask id="17336fdc51"><g filter="url(#aa2b5d708f)"><rect x="-18.75" width="225" fill="#000000" y="-4.5" height="53.999999" fill-opacity="0.98"/></g></mask><clipPath id="d358093d26"><path d="M 0.222656 0.0585938 L 174.71875 0.0585938 L 174.71875 44.9375 L 0.222656 44.9375 Z M 0.222656 0.0585938 " clip-rule="nonzero"/></clipPath><clipPath id="7ef0dc74ea"><rect x="0" width="175" y="0" height="45"/></clipPath><clipPath id="7a1218df4e"><rect x="0" width="175" y="0" height="45"/></clipPath></defs><g clip-path="url(#29ad2f7663)"><g mask="url(#17336fdc51)"><g transform="matrix(1, 0, 0, 1, 6, 0.000000000000004656)"><g clip-path="url(#7a1218df4e)"><g clip-path="url(#d358093d26)"><g transform="matrix(1, 0, 0, 1, 0, 0.000000000000004656)"><g clip-path="url(#7ef0dc74ea)"><g fill="#f2ead8" fill-opacity="1"><g transform="translate(0.377182, 31.92401)"><g><path d="M 1.5 -3.109375 C 1.269531 -3.316406 1.160156 -3.519531 1.171875 -3.71875 C 1.179688 -3.914062 1.195312 -4.144531 1.21875 -4.40625 C 1.269531 -4.65625 1.316406 -4.875 1.359375 -5.0625 C 1.410156 -5.25 1.515625 -5.457031 1.671875 -5.6875 C 1.859375 -5.945312 2.007812 -6.253906 2.125 -6.609375 C 2.25 -6.972656 2.378906 -7.316406 2.515625 -7.640625 C 2.628906 -7.972656 2.800781 -8.257812 3.03125 -8.5 C 3.269531 -8.75 3.46875 -9.015625 3.625 -9.296875 C 3.8125 -9.597656 3.96875 -9.890625 4.09375 -10.171875 C 4.226562 -10.460938 4.410156 -10.773438 4.640625 -11.109375 C 5.085938 -11.691406 5.5 -12.285156 5.875 -12.890625 C 6.257812 -13.492188 6.640625 -14.109375 7.015625 -14.734375 C 7.347656 -15.296875 7.691406 -15.835938 8.046875 -16.359375 C 8.410156 -16.878906 8.742188 -17.410156 9.046875 -17.953125 C 9.160156 -18.160156 9.273438 -18.382812 9.390625 -18.625 C 9.503906 -18.875 9.679688 -19.046875 9.921875 -19.140625 C 10.054688 -19.234375 10.132812 -19.351562 10.15625 -19.5 C 10.1875 -19.65625 10.226562 -19.785156 10.28125 -19.890625 C 10.34375 -19.992188 10.476562 -19.988281 10.6875 -19.875 C 10.894531 -19.78125 11.0625 -19.609375 11.1875 -19.359375 C 11.320312 -19.117188 11.363281 -18.894531 11.3125 -18.6875 C 11.269531 -18.519531 11.210938 -18.398438 11.140625 -18.328125 C 11.066406 -18.265625 10.9375 -18.160156 10.75 -18.015625 C 10.632812 -17.921875 10.644531 -17.867188 10.78125 -17.859375 C 10.925781 -17.847656 10.988281 -17.785156 10.96875 -17.671875 C 10.945312 -17.578125 10.894531 -17.507812 10.8125 -17.46875 C 10.726562 -17.4375 10.660156 -17.390625 10.609375 -17.328125 C 10.453125 -17.109375 10.304688 -16.882812 10.171875 -16.65625 C 10.046875 -16.425781 9.925781 -16.191406 9.8125 -15.953125 L 7.046875 -11.3125 C 6.960938 -11.144531 6.789062 -10.882812 6.53125 -10.53125 C 6.269531 -10.1875 6.035156 -9.9375 5.828125 -9.78125 C 5.546875 -9.570312 5.347656 -9.253906 5.234375 -8.828125 C 5.117188 -8.410156 4.96875 -8.039062 4.78125 -7.71875 C 4.644531 -7.53125 4.441406 -7.234375 4.171875 -6.828125 C 3.898438 -6.421875 3.664062 -6.003906 3.46875 -5.578125 C 3.269531 -5.160156 3.207031 -4.828125 3.28125 -4.578125 C 3.507812 -4.578125 3.757812 -4.648438 4.03125 -4.796875 C 4.300781 -4.953125 4.550781 -5.078125 4.78125 -5.171875 C 4.851562 -5.210938 4.9375 -5.179688 5.03125 -5.078125 C 5.125 -4.972656 5.203125 -4.945312 5.265625 -5 L 5.140625 -5.265625 C 5.410156 -5.453125 5.785156 -5.660156 6.265625 -5.890625 C 6.742188 -6.128906 7.132812 -6.25 7.4375 -6.25 C 7.757812 -6.25 7.992188 -6.257812 8.140625 -6.28125 C 8.296875 -6.3125 8.410156 -6.460938 8.484375 -6.734375 C 8.554688 -6.992188 8.640625 -7.144531 8.734375 -7.1875 C 8.828125 -7.238281 8.953125 -7.3125 9.109375 -7.40625 L 10.34375 -8.109375 C 10.820312 -8.285156 11.238281 -8.566406 11.59375 -8.953125 C 11.945312 -9.335938 12.285156 -9.695312 12.609375 -10.03125 C 12.929688 -10.375 13.300781 -10.566406 13.71875 -10.609375 C 13.863281 -10.640625 13.992188 -10.679688 14.109375 -10.734375 C 14.222656 -10.796875 14.328125 -10.828125 14.421875 -10.828125 C 14.535156 -10.828125 14.664062 -10.710938 14.8125 -10.484375 C 14.875 -10.335938 14.816406 -10.273438 14.640625 -10.296875 C 14.472656 -10.328125 14.304688 -10.34375 14.140625 -10.34375 C 13.890625 -10.34375 13.84375 -10.25 14 -10.0625 C 14.050781 -10.007812 14.082031 -10.007812 14.09375 -10.0625 C 14.101562 -10.125 14.128906 -10.171875 14.171875 -10.203125 C 14.296875 -10.242188 14.414062 -10.222656 14.53125 -10.140625 C 14.644531 -10.054688 14.675781 -9.957031 14.625 -9.84375 C 14.5625 -9.6875 14.441406 -9.570312 14.265625 -9.5 C 14.085938 -9.425781 13.941406 -9.320312 13.828125 -9.1875 C 13.734375 -9.039062 13.625 -8.957031 13.5 -8.9375 C 13.375 -8.914062 13.25 -8.847656 13.125 -8.734375 C 12.894531 -8.472656 12.660156 -8.210938 12.421875 -7.953125 C 12.191406 -7.703125 11.9375 -7.472656 11.65625 -7.265625 C 11.289062 -6.941406 10.84375 -6.570312 10.3125 -6.15625 C 9.789062 -5.75 9.265625 -5.523438 8.734375 -5.484375 C 8.773438 -5.253906 8.804688 -5.023438 8.828125 -4.796875 C 8.859375 -4.578125 8.875 -4.351562 8.875 -4.125 L 8.875 -3.078125 C 8.875 -2.703125 8.894531 -2.332031 8.9375 -1.96875 C 8.988281 -1.613281 9.117188 -1.257812 9.328125 -0.90625 C 9.515625 -0.582031 9.726562 -0.269531 9.96875 0.03125 C 10.21875 0.332031 10.476562 0.613281 10.75 0.875 C 10.894531 1.007812 11.078125 1.160156 11.296875 1.328125 C 11.515625 1.492188 11.691406 1.648438 11.828125 1.796875 C 11.972656 1.953125 11.960938 2.109375 11.796875 2.265625 C 11.773438 2.296875 11.742188 2.320312 11.703125 2.34375 C 11.671875 2.363281 11.65625 2.375 11.65625 2.375 C 11.632812 2.375 11.625 2.34375 11.625 2.28125 C 11.625 2.226562 11.59375 2.203125 11.53125 2.203125 C 11.457031 2.203125 11.363281 2.25 11.25 2.34375 C 11.082031 2.457031 10.878906 2.441406 10.640625 2.296875 C 10.410156 2.160156 10.179688 2.082031 9.953125 2.0625 C 9.765625 2.0625 9.628906 2.019531 9.546875 1.9375 C 9.460938 1.851562 9.363281 1.742188 9.25 1.609375 C 9.0625 1.441406 8.910156 1.234375 8.796875 0.984375 C 8.703125 0.796875 8.597656 0.71875 8.484375 0.75 C 8.367188 0.78125 8.253906 0.726562 8.140625 0.59375 C 7.785156 0.195312 7.554688 -0.242188 7.453125 -0.734375 C 7.347656 -1.222656 7.296875 -1.722656 7.296875 -2.234375 C 7.296875 -2.742188 7.273438 -3.207031 7.234375 -3.625 C 7.203125 -3.8125 7.171875 -3.914062 7.140625 -3.9375 C 7.109375 -3.96875 7.09375 -4.050781 7.09375 -4.1875 C 6.925781 -4.164062 6.753906 -4.113281 6.578125 -4.03125 C 6.410156 -3.945312 6.234375 -3.90625 6.046875 -3.90625 C 6.085938 -3.695312 5.960938 -3.550781 5.671875 -3.46875 C 5.378906 -3.394531 5.15625 -3.359375 5 -3.359375 C 4.695312 -3.359375 4.40625 -3.265625 4.125 -3.078125 C 3.84375 -2.890625 3.550781 -2.757812 3.25 -2.6875 C 2.945312 -2.613281 2.632812 -2.613281 2.3125 -2.6875 C 2 -2.757812 1.726562 -2.898438 1.5 -3.109375 Z M 11.0625 -20.703125 C 11 -20.910156 11.023438 -21.117188 11.140625 -21.328125 C 11.253906 -21.546875 11.367188 -21.734375 11.484375 -21.890625 C 11.554688 -21.984375 11.6875 -22.050781 11.875 -22.09375 C 12.0625 -22.144531 12.175781 -22.078125 12.21875 -21.890625 C 12.269531 -21.734375 12.332031 -21.71875 12.40625 -21.84375 C 12.488281 -21.96875 12.554688 -22.007812 12.609375 -21.96875 C 12.835938 -21.851562 12.882812 -21.644531 12.75 -21.34375 C 12.695312 -21.25 12.660156 -21.140625 12.640625 -21.015625 C 12.617188 -20.898438 12.597656 -20.785156 12.578125 -20.671875 C 12.523438 -20.441406 12.425781 -20.210938 12.28125 -19.984375 C 12.144531 -19.765625 11.960938 -19.703125 11.734375 -19.796875 C 11.410156 -19.960938 11.1875 -20.265625 11.0625 -20.703125 Z M 12.359375 -22.3125 C 12.359375 -22.332031 12.269531 -22.359375 12.09375 -22.390625 C 11.925781 -22.429688 11.898438 -22.523438 12.015625 -22.671875 C 12.203125 -22.753906 12.3125 -22.875 12.34375 -23.03125 C 12.375 -23.1875 12.410156 -23.328125 12.453125 -23.453125 C 12.503906 -23.578125 12.648438 -23.648438 12.890625 -23.671875 C 13.117188 -23.703125 13.273438 -23.625 13.359375 -23.4375 C 13.441406 -23.25 13.472656 -23.035156 13.453125 -22.796875 C 13.441406 -22.566406 13.414062 -22.382812 13.375 -22.25 C 13.351562 -22.269531 13.203125 -22.335938 12.921875 -22.453125 C 12.640625 -22.566406 12.507812 -22.601562 12.53125 -22.5625 C 12.582031 -22.414062 12.523438 -22.332031 12.359375 -22.3125 Z M 12.359375 -22.3125 "/></g></g></g><g fill="#f2ead8" fill-opacity="1"><g transform="translate(16.055582, 31.92401)"><g><path d="M 1.921875 0.90625 C 1.472656 0.582031 1.164062 0.1875 1 -0.28125 C 0.84375 -0.75 0.765625 -1.25 0.765625 -1.78125 C 0.765625 -2.175781 0.789062 -2.578125 0.84375 -2.984375 C 0.90625 -3.390625 0.984375 -3.789062 1.078125 -4.1875 C 1.191406 -4.632812 1.382812 -5.144531 1.65625 -5.71875 C 1.925781 -6.300781 2.25 -6.742188 2.625 -7.046875 C 2.8125 -7.210938 2.941406 -7.3125 3.015625 -7.34375 C 3.097656 -7.382812 3.1875 -7.484375 3.28125 -7.640625 C 3.351562 -7.765625 3.4375 -7.828125 3.53125 -7.828125 C 3.644531 -7.828125 3.753906 -7.78125 3.859375 -7.6875 C 3.960938 -7.59375 4.070312 -7.59375 4.1875 -7.6875 C 4.300781 -7.800781 4.316406 -7.910156 4.234375 -8.015625 C 4.160156 -8.117188 4.078125 -8.226562 3.984375 -8.34375 C 3.890625 -8.457031 3.890625 -8.585938 3.984375 -8.734375 C 4.171875 -8.921875 4.328125 -9.019531 4.453125 -9.03125 C 4.578125 -9.039062 4.734375 -9.09375 4.921875 -9.1875 C 5.179688 -9.34375 5.460938 -9.53125 5.765625 -9.75 C 6.066406 -9.976562 6.359375 -10.09375 6.640625 -10.09375 C 6.753906 -10.09375 6.890625 -10.035156 7.046875 -9.921875 C 7.234375 -9.753906 7.316406 -9.648438 7.296875 -9.609375 C 7.273438 -9.578125 7.359375 -9.515625 7.546875 -9.421875 C 7.734375 -9.359375 7.851562 -9.195312 7.90625 -8.9375 C 7.96875 -8.6875 7.984375 -8.421875 7.953125 -8.140625 C 7.929688 -7.859375 7.890625 -7.648438 7.828125 -7.515625 C 7.773438 -7.441406 7.71875 -7.390625 7.65625 -7.359375 C 7.601562 -7.335938 7.585938 -7.296875 7.609375 -7.234375 C 7.660156 -7.109375 7.640625 -6.992188 7.546875 -6.890625 C 7.453125 -6.785156 7.347656 -6.78125 7.234375 -6.875 C 7.085938 -6.988281 6.941406 -7.054688 6.796875 -7.078125 C 6.660156 -7.109375 6.59375 -7.273438 6.59375 -7.578125 C 6.570312 -7.691406 6.554688 -7.863281 6.546875 -8.09375 C 6.535156 -8.332031 6.4375 -8.40625 6.25 -8.3125 C 6.0625 -8.238281 5.878906 -8.101562 5.703125 -7.90625 C 5.535156 -7.707031 5.375 -7.550781 5.21875 -7.4375 C 5.070312 -7.320312 4.9375 -7.3125 4.8125 -7.40625 L 4.546875 -7.71875 C 4.304688 -7.601562 4.203125 -7.507812 4.234375 -7.4375 C 4.273438 -7.363281 4.351562 -7.296875 4.46875 -7.234375 C 4.582031 -7.179688 4.640625 -7.085938 4.640625 -6.953125 C 4.640625 -6.710938 4.523438 -6.503906 4.296875 -6.328125 C 4.128906 -6.109375 3.960938 -5.945312 3.796875 -5.84375 C 3.640625 -5.738281 3.515625 -5.5625 3.421875 -5.3125 C 3.304688 -4.820312 3.113281 -4.359375 2.84375 -3.921875 C 2.570312 -3.492188 2.378906 -3.015625 2.265625 -2.484375 C 2.171875 -1.898438 2.253906 -1.40625 2.515625 -1 C 2.773438 -0.59375 3.226562 -0.390625 3.875 -0.390625 C 4.289062 -0.390625 4.785156 -0.472656 5.359375 -0.640625 C 5.929688 -0.816406 6.414062 -1.054688 6.8125 -1.359375 C 7.132812 -1.617188 7.472656 -1.875 7.828125 -2.125 C 8.191406 -2.382812 8.523438 -2.664062 8.828125 -2.96875 C 8.898438 -3.039062 9.003906 -3.140625 9.140625 -3.265625 C 9.285156 -3.390625 9.425781 -3.488281 9.5625 -3.5625 C 9.707031 -3.632812 9.78125 -3.613281 9.78125 -3.5 C 9.78125 -3.425781 9.738281 -3.367188 9.65625 -3.328125 C 9.570312 -3.296875 9.566406 -3.269531 9.640625 -3.25 C 9.847656 -3.15625 10.0625 -3.210938 10.28125 -3.421875 C 10.5 -3.628906 10.703125 -3.882812 10.890625 -4.1875 C 11.078125 -4.488281 11.21875 -4.722656 11.3125 -4.890625 C 11.570312 -5.285156 11.789062 -5.691406 11.96875 -6.109375 C 12.15625 -6.523438 12.066406 -6.957031 11.703125 -7.40625 C 11.535156 -7.59375 11.484375 -7.710938 11.546875 -7.765625 C 11.617188 -7.828125 11.695312 -7.882812 11.78125 -7.9375 C 11.863281 -8 11.859375 -8.113281 11.765625 -8.28125 C 11.691406 -8.375 11.632812 -8.421875 11.59375 -8.421875 C 11.5 -8.421875 11.394531 -8.332031 11.28125 -8.15625 C 11.164062 -7.976562 10.976562 -7.9375 10.71875 -8.03125 C 10.5625 -8.082031 10.507812 -8.148438 10.5625 -8.234375 C 10.625 -8.328125 10.628906 -8.4375 10.578125 -8.5625 C 10.535156 -8.625 10.445312 -8.640625 10.3125 -8.609375 C 10.1875 -8.578125 10.101562 -8.535156 10.0625 -8.484375 C 10.03125 -8.441406 10.03125 -8.398438 10.0625 -8.359375 C 10.101562 -8.328125 10.101562 -8.300781 10.0625 -8.28125 C 9.945312 -8.25 9.875 -8.3125 9.84375 -8.46875 C 9.820312 -8.625 9.765625 -8.664062 9.671875 -8.59375 C 9.535156 -8.445312 9.46875 -8.320312 9.46875 -8.21875 C 9.46875 -8.113281 9.457031 -8.003906 9.4375 -7.890625 C 9.425781 -7.773438 9.316406 -7.613281 9.109375 -7.40625 C 8.992188 -7.257812 8.890625 -7.148438 8.796875 -7.078125 C 8.703125 -7.015625 8.597656 -7.03125 8.484375 -7.125 C 8.410156 -7.164062 8.414062 -7.191406 8.5 -7.203125 C 8.582031 -7.222656 8.613281 -7.265625 8.59375 -7.328125 C 8.5 -7.703125 8.453125 -7.945312 8.453125 -8.0625 C 8.453125 -8.175781 8.507812 -8.316406 8.625 -8.484375 C 8.832031 -8.710938 9.039062 -8.863281 9.25 -8.9375 C 9.4375 -9.007812 9.546875 -8.976562 9.578125 -8.84375 C 9.617188 -8.71875 9.6875 -8.703125 9.78125 -8.796875 C 9.851562 -8.867188 9.847656 -8.929688 9.765625 -8.984375 C 9.679688 -9.046875 9.6875 -9.085938 9.78125 -9.109375 C 9.820312 -9.140625 9.867188 -9.113281 9.921875 -9.03125 C 9.984375 -8.945312 10.039062 -8.914062 10.09375 -8.9375 C 10.226562 -8.988281 10.3125 -9.09375 10.34375 -9.25 C 10.382812 -9.414062 10.472656 -9.519531 10.609375 -9.5625 C 10.796875 -9.613281 11.125 -9.582031 11.59375 -9.46875 C 12.0625 -9.351562 12.375 -9.234375 12.53125 -9.109375 C 12.789062 -8.972656 12.929688 -8.8125 12.953125 -8.625 C 12.972656 -8.4375 13.066406 -8.238281 13.234375 -8.03125 C 13.347656 -7.84375 13.421875 -7.664062 13.453125 -7.5 C 13.492188 -7.34375 13.476562 -7.160156 13.40625 -6.953125 C 13.21875 -6.367188 13.03125 -5.804688 12.84375 -5.265625 C 12.664062 -4.734375 12.398438 -4.234375 12.046875 -3.765625 C 11.953125 -3.648438 11.859375 -3.613281 11.765625 -3.65625 C 11.671875 -3.707031 11.585938 -3.753906 11.515625 -3.796875 C 11.453125 -3.847656 11.410156 -3.816406 11.390625 -3.703125 C 11.359375 -3.535156 11.40625 -3.453125 11.53125 -3.453125 C 11.664062 -3.453125 11.640625 -3.375 11.453125 -3.21875 C 11.335938 -3.125 11.226562 -3.035156 11.125 -2.953125 C 11.019531 -2.867188 10.910156 -2.769531 10.796875 -2.65625 C 10.722656 -2.582031 10.585938 -2.394531 10.390625 -2.09375 C 10.191406 -1.789062 10.035156 -1.59375 9.921875 -1.5 C 9.753906 -1.332031 9.492188 -1.164062 9.140625 -1 C 8.796875 -0.84375 8.585938 -0.707031 8.515625 -0.59375 C 8.398438 -0.382812 8.148438 -0.171875 7.765625 0.046875 C 7.378906 0.273438 7 0.460938 6.625 0.609375 C 6.257812 0.765625 5.992188 0.863281 5.828125 0.90625 C 5.390625 0.976562 5.003906 1.039062 4.671875 1.09375 C 4.347656 1.15625 3.957031 1.164062 3.5 1.125 C 3.28125 1.09375 3.007812 1.070312 2.6875 1.0625 C 2.363281 1.050781 2.109375 1 1.921875 0.90625 Z M 1.921875 0.90625 "/></g></g></g><g fill="#f2ead8" fill-opacity="1"><g transform="translate(31.314965, 31.92401)"><g><path d="M 0.390625 -2.546875 C 0.390625 -2.660156 0.441406 -2.773438 0.546875 -2.890625 C 0.648438 -3.015625 0.734375 -3.132812 0.796875 -3.25 C 1.335938 -4.226562 1.816406 -5.226562 2.234375 -6.25 C 2.648438 -7.269531 2.960938 -8.316406 3.171875 -9.390625 C 3.222656 -9.441406 3.320312 -9.53125 3.46875 -9.65625 C 3.625 -9.78125 3.722656 -9.890625 3.765625 -9.984375 C 3.859375 -10.097656 3.867188 -10.195312 3.796875 -10.28125 C 3.734375 -10.363281 3.65625 -10.367188 3.5625 -10.296875 C 3.519531 -10.273438 3.4375 -10.191406 3.3125 -10.046875 C 3.195312 -9.910156 3.101562 -9.820312 3.03125 -9.78125 C 2.945312 -9.726562 2.925781 -9.757812 2.96875 -9.875 C 3.007812 -10 3.078125 -10.125 3.171875 -10.25 C 3.265625 -10.375 3.3125 -10.4375 3.3125 -10.4375 C 3.476562 -10.601562 3.664062 -10.722656 3.875 -10.796875 C 4.082031 -10.835938 4.253906 -10.765625 4.390625 -10.578125 C 4.535156 -10.390625 4.628906 -10.203125 4.671875 -10.015625 C 4.796875 -9.710938 4.773438 -9.375 4.609375 -9 C 4.441406 -8.632812 4.394531 -8.347656 4.46875 -8.140625 C 4.976562 -8.390625 5.414062 -8.722656 5.78125 -9.140625 C 6.144531 -9.566406 6.546875 -9.929688 6.984375 -10.234375 C 7.421875 -10.515625 7.851562 -10.726562 8.28125 -10.875 C 8.71875 -11.03125 9.191406 -11.1875 9.703125 -11.34375 C 10.148438 -11.488281 10.59375 -11.363281 11.03125 -10.96875 C 11.195312 -10.820312 11.347656 -10.707031 11.484375 -10.625 C 11.628906 -10.550781 11.75 -10.421875 11.84375 -10.234375 C 12 -9.910156 12.191406 -9.585938 12.421875 -9.265625 C 12.660156 -8.953125 12.828125 -8.597656 12.921875 -8.203125 C 12.960938 -7.972656 12.957031 -7.84375 12.90625 -7.8125 C 12.863281 -7.789062 12.90625 -7.691406 13.03125 -7.515625 C 13.070312 -7.441406 13.046875 -7.3125 12.953125 -7.125 C 12.859375 -6.9375 12.894531 -6.84375 13.0625 -6.84375 C 13.195312 -6.84375 13.257812 -6.816406 13.25 -6.765625 C 13.238281 -6.722656 13.242188 -6.644531 13.265625 -6.53125 C 12.960938 -6.53125 12.707031 -6.609375 12.5 -6.765625 C 12.289062 -6.929688 12.082031 -7.097656 11.875 -7.265625 C 11.820312 -7.335938 11.734375 -7.429688 11.609375 -7.546875 C 11.484375 -7.660156 11.382812 -7.738281 11.3125 -7.78125 C 11.269531 -7.832031 11.273438 -7.921875 11.328125 -8.046875 C 11.390625 -8.171875 11.410156 -8.25 11.390625 -8.28125 C 11.335938 -8.34375 11.265625 -8.394531 11.171875 -8.4375 C 11.078125 -8.488281 11.007812 -8.5625 10.96875 -8.65625 C 10.914062 -8.820312 10.726562 -8.988281 10.40625 -9.15625 C 10.082031 -9.332031 9.835938 -9.421875 9.671875 -9.421875 C 9.535156 -9.421875 9.394531 -9.398438 9.25 -9.359375 C 9.113281 -9.316406 8.953125 -9.269531 8.765625 -9.21875 C 8.554688 -9.195312 8.238281 -9.019531 7.8125 -8.6875 C 7.394531 -8.363281 6.945312 -7.988281 6.46875 -7.5625 C 6 -7.132812 5.570312 -6.722656 5.1875 -6.328125 C 4.800781 -5.929688 4.539062 -5.640625 4.40625 -5.453125 C 4.050781 -5.003906 3.691406 -4.582031 3.328125 -4.1875 C 2.972656 -3.789062 2.703125 -3.347656 2.515625 -2.859375 C 2.421875 -2.671875 2.335938 -2.472656 2.265625 -2.265625 C 2.203125 -2.054688 2.097656 -1.875 1.953125 -1.71875 C 1.742188 -1.457031 1.476562 -1.328125 1.15625 -1.328125 C 0.875 -1.328125 0.675781 -1.472656 0.5625 -1.765625 C 0.445312 -2.054688 0.390625 -2.316406 0.390625 -2.546875 Z M 0.390625 -2.546875 "/></g></g></g><g fill="#f2ead8" fill-opacity="1"><g transform="translate(44.58399, 31.92401)"><g><path d="M 1.25 -1.78125 C 1.1875 -2.101562 1.160156 -2.429688 1.171875 -2.765625 C 1.179688 -3.109375 1.1875 -3.441406 1.1875 -3.765625 C 1.226562 -4.140625 1.335938 -4.523438 1.515625 -4.921875 C 1.691406 -5.316406 1.789062 -5.703125 1.8125 -6.078125 C 1.8125 -6.398438 1.875 -6.820312 2 -7.34375 C 2.132812 -7.875 2.296875 -8.300781 2.484375 -8.625 C 2.597656 -8.832031 2.71875 -8.957031 2.84375 -9 C 2.96875 -9.050781 3.140625 -9.085938 3.359375 -9.109375 L 3.765625 -8.828125 C 3.953125 -8.878906 4.085938 -8.976562 4.171875 -9.125 C 4.253906 -9.28125 4.238281 -9.441406 4.125 -9.609375 C 4.070312 -9.671875 4.007812 -9.71875 3.9375 -9.75 C 3.875 -9.789062 3.816406 -9.859375 3.765625 -9.953125 C 3.972656 -10.023438 4.132812 -9.992188 4.25 -9.859375 C 4.375 -9.734375 4.410156 -9.578125 4.359375 -9.390625 C 4.335938 -9.203125 4.296875 -9.066406 4.234375 -8.984375 C 4.179688 -8.910156 4.070312 -8.789062 3.90625 -8.625 C 3.8125 -8.53125 3.835938 -8.5 3.984375 -8.53125 C 4.140625 -8.570312 4.148438 -8.507812 4.015625 -8.34375 C 3.972656 -8.300781 3.941406 -8.195312 3.921875 -8.03125 C 3.910156 -7.863281 3.921875 -7.722656 3.953125 -7.609375 C 3.972656 -7.453125 3.921875 -7.328125 3.796875 -7.234375 C 3.679688 -7.140625 3.640625 -7.035156 3.671875 -6.921875 C 3.710938 -6.773438 3.742188 -6.648438 3.765625 -6.546875 C 3.796875 -6.441406 3.726562 -6.332031 3.5625 -6.21875 C 3.519531 -6.195312 3.503906 -6.238281 3.515625 -6.34375 C 3.523438 -6.445312 3.492188 -6.472656 3.421875 -6.421875 C 3.328125 -6.378906 3.285156 -6.28125 3.296875 -6.125 C 3.304688 -5.976562 3.328125 -5.847656 3.359375 -5.734375 C 3.378906 -5.679688 3.398438 -5.695312 3.421875 -5.78125 C 3.441406 -5.863281 3.46875 -5.878906 3.5 -5.828125 C 3.5625 -5.710938 3.550781 -5.519531 3.46875 -5.25 C 3.394531 -4.988281 3.300781 -4.722656 3.1875 -4.453125 C 3.082031 -4.179688 3.019531 -3.976562 3 -3.84375 C 2.957031 -3.675781 2.863281 -3.46875 2.71875 -3.21875 C 2.582031 -2.976562 2.597656 -2.859375 2.765625 -2.859375 C 2.859375 -2.859375 3.097656 -2.960938 3.484375 -3.171875 C 3.878906 -3.390625 4.273438 -3.625 4.671875 -3.875 C 5.066406 -4.132812 5.3125 -4.332031 5.40625 -4.46875 C 5.625 -4.820312 5.890625 -5.109375 6.203125 -5.328125 C 6.515625 -5.546875 6.8125 -5.796875 7.09375 -6.078125 C 7.15625 -6.148438 7.28125 -6.273438 7.46875 -6.453125 C 7.65625 -6.640625 7.847656 -6.816406 8.046875 -6.984375 C 8.242188 -7.148438 8.390625 -7.234375 8.484375 -7.234375 C 8.671875 -7.234375 8.890625 -7.390625 9.140625 -7.703125 C 9.398438 -8.015625 9.640625 -8.332031 9.859375 -8.65625 C 10.085938 -8.988281 10.210938 -9.164062 10.234375 -9.1875 L 11.0625 -10.09375 C 11.226562 -10.257812 11.40625 -10.410156 11.59375 -10.546875 C 11.78125 -10.679688 11.988281 -10.796875 12.21875 -10.890625 C 12.425781 -10.984375 12.613281 -11 12.78125 -10.9375 C 12.894531 -10.882812 13.015625 -10.898438 13.140625 -10.984375 C 13.273438 -11.066406 13.410156 -11.128906 13.546875 -11.171875 C 13.710938 -11.222656 13.941406 -11.25 14.234375 -11.25 C 14.523438 -11.25 14.75 -11.203125 14.90625 -11.109375 C 15.09375 -10.992188 15.164062 -10.796875 15.125 -10.515625 C 15.125 -10.347656 15.09375 -10.269531 15.03125 -10.28125 C 14.976562 -10.289062 14.878906 -10.265625 14.734375 -10.203125 C 14.578125 -10.148438 14.425781 -10.070312 14.28125 -9.96875 C 14.144531 -9.863281 14.019531 -9.753906 13.90625 -9.640625 C 13.78125 -9.546875 13.535156 -9.394531 13.171875 -9.1875 C 12.816406 -8.976562 12.554688 -8.847656 12.390625 -8.796875 C 12.347656 -8.796875 12.179688 -8.648438 11.890625 -8.359375 C 11.597656 -8.066406 11.296875 -7.765625 10.984375 -7.453125 C 10.671875 -7.140625 10.46875 -6.914062 10.375 -6.78125 C 10.207031 -6.539062 9.921875 -6.25 9.515625 -5.90625 C 9.109375 -5.570312 8.773438 -5.253906 8.515625 -4.953125 L 6.21875 -2.828125 C 6.125 -2.640625 5.945312 -2.46875 5.6875 -2.3125 C 5.4375 -2.164062 5.191406 -1.976562 4.953125 -1.75 C 4.796875 -1.582031 4.625 -1.5 4.4375 -1.5 C 4.25 -1.5 4.085938 -1.414062 3.953125 -1.25 C 3.785156 -1.070312 3.550781 -0.945312 3.25 -0.875 C 2.945312 -0.800781 2.632812 -0.765625 2.3125 -0.765625 C 2.164062 -0.785156 2.082031 -0.863281 2.0625 -1 C 2.039062 -1.144531 1.96875 -1.195312 1.84375 -1.15625 C 1.5 -1.007812 1.320312 -1.046875 1.3125 -1.265625 C 1.300781 -1.492188 1.28125 -1.664062 1.25 -1.78125 Z M 1.25 -1.78125 "/></g></g></g><g fill="#f2ead8" fill-opacity="1"><g transform="translate(58.7609, 31.92401)"><g><path d="M 6.875 1.359375 C 6.507812 1.359375 5.992188 1.28125 5.328125 1.125 C 4.660156 0.976562 3.976562 0.742188 3.28125 0.421875 C 2.582031 0.0976562 1.992188 -0.328125 1.515625 -0.859375 C 1.035156 -1.398438 0.796875 -2.054688 0.796875 -2.828125 C 0.796875 -3.035156 0.878906 -3.382812 1.046875 -3.875 C 1.210938 -4.363281 1.40625 -4.816406 1.625 -5.234375 C 1.84375 -5.648438 2.046875 -5.859375 2.234375 -5.859375 C 2.554688 -5.859375 2.757812 -5.960938 2.84375 -6.171875 C 2.925781 -6.390625 3.070312 -6.566406 3.28125 -6.703125 C 3.394531 -6.796875 3.519531 -6.867188 3.65625 -6.921875 C 3.800781 -6.984375 3.882812 -7.085938 3.90625 -7.234375 C 3.90625 -7.367188 3.800781 -7.5 3.59375 -7.625 C 3.382812 -7.757812 3.28125 -7.90625 3.28125 -8.0625 C 3.28125 -8.25 3.390625 -8.398438 3.609375 -8.515625 C 3.835938 -8.640625 4.039062 -8.703125 4.21875 -8.703125 C 4.382812 -8.703125 4.523438 -8.609375 4.640625 -8.421875 C 4.753906 -8.234375 4.851562 -8.046875 4.9375 -7.859375 C 5.019531 -7.671875 5.0625 -7.554688 5.0625 -7.515625 C 5.0625 -7.367188 5.003906 -7.238281 4.890625 -7.125 C 4.773438 -7.007812 4.660156 -6.847656 4.546875 -6.640625 C 4.421875 -6.453125 4.316406 -6.21875 4.234375 -5.9375 C 4.160156 -5.65625 4.03125 -5.429688 3.84375 -5.265625 C 3.445312 -4.941406 3.25 -4.5625 3.25 -4.125 C 3.25 -3.976562 3.304688 -3.90625 3.421875 -3.90625 C 3.535156 -3.90625 3.675781 -3.941406 3.84375 -4.015625 C 4.632812 -4.410156 5.359375 -4.945312 6.015625 -5.625 C 6.679688 -6.300781 7.222656 -7.054688 7.640625 -7.890625 C 7.691406 -7.984375 7.78125 -8.144531 7.90625 -8.375 C 8.039062 -8.613281 8.164062 -8.863281 8.28125 -9.125 C 8.394531 -9.394531 8.453125 -9.601562 8.453125 -9.75 C 8.453125 -9.863281 8.394531 -9.925781 8.28125 -9.9375 C 8.164062 -9.945312 8.070312 -9.953125 8 -9.953125 C 7.601562 -9.953125 7.304688 -9.851562 7.109375 -9.65625 C 6.910156 -9.457031 6.765625 -9.257812 6.671875 -9.0625 C 6.578125 -8.863281 6.472656 -8.765625 6.359375 -8.765625 C 6.285156 -8.765625 6.207031 -8.78125 6.125 -8.8125 C 6.039062 -8.851562 5.96875 -8.875 5.90625 -8.875 C 5.757812 -8.875 5.625 -8.851562 5.5 -8.8125 C 5.375 -8.78125 5.226562 -8.765625 5.0625 -8.765625 C 5.019531 -8.765625 4.875 -8.789062 4.625 -8.84375 C 4.382812 -8.90625 4.265625 -8.992188 4.265625 -9.109375 C 4.265625 -9.234375 4.398438 -9.414062 4.671875 -9.65625 C 4.953125 -9.894531 5.175781 -10.03125 5.34375 -10.0625 L 6.640625 -11.421875 C 6.796875 -11.460938 6.957031 -11.546875 7.125 -11.671875 C 7.289062 -11.804688 7.460938 -11.875 7.640625 -11.875 C 7.734375 -11.875 7.828125 -11.851562 7.921875 -11.8125 C 8.015625 -11.78125 8.109375 -11.765625 8.203125 -11.765625 C 8.316406 -11.765625 8.414062 -11.773438 8.5 -11.796875 C 8.582031 -11.828125 8.632812 -11.84375 8.65625 -11.84375 C 8.726562 -11.84375 8.859375 -11.75 9.046875 -11.5625 L 9.890625 -10.796875 C 9.953125 -10.722656 9.984375 -10.617188 9.984375 -10.484375 C 9.984375 -10.335938 9.957031 -10.179688 9.90625 -10.015625 C 9.863281 -9.859375 9.84375 -9.722656 9.84375 -9.609375 C 9.84375 -9.460938 9.890625 -9.378906 9.984375 -9.359375 C 10.078125 -9.335938 10.125 -9.242188 10.125 -9.078125 C 10.125 -8.847656 10.0625 -8.582031 9.9375 -8.28125 C 9.8125 -7.976562 9.710938 -7.765625 9.640625 -7.640625 C 9.492188 -7.390625 9.289062 -7.070312 9.03125 -6.6875 C 8.78125 -6.300781 8.515625 -5.914062 8.234375 -5.53125 C 7.960938 -5.144531 7.726562 -4.820312 7.53125 -4.5625 C 7.332031 -4.3125 7.234375 -4.1875 7.234375 -4.1875 C 7.085938 -4.1875 6.84375 -4.0625 6.5 -3.8125 C 6.164062 -3.570312 5.820312 -3.300781 5.46875 -3 C 5.125 -2.695312 4.859375 -2.46875 4.671875 -2.3125 C 4.492188 -2.144531 4.226562 -2.039062 3.875 -2 C 3.53125 -1.96875 3.359375 -1.859375 3.359375 -1.671875 C 3.359375 -1.578125 3.4375 -1.484375 3.59375 -1.390625 L 4.5 -0.734375 C 4.832031 -0.503906 5.226562 -0.367188 5.6875 -0.328125 C 6.15625 -0.296875 6.578125 -0.269531 6.953125 -0.25 L 8.03125 -0.203125 C 8.5 -0.179688 8.96875 -0.257812 9.4375 -0.4375 C 9.914062 -0.613281 10.425781 -0.6875 10.96875 -0.65625 C 11.15625 -0.65625 11.269531 -0.644531 11.3125 -0.625 C 11.363281 -0.601562 11.457031 -0.523438 11.59375 -0.390625 L 11.625 -0.34375 C 11.675781 -0.34375 11.710938 -0.394531 11.734375 -0.5 C 11.753906 -0.601562 11.800781 -0.679688 11.875 -0.734375 C 11.894531 -0.753906 11.929688 -0.765625 11.984375 -0.765625 C 12.046875 -0.765625 12.097656 -0.707031 12.140625 -0.59375 C 12.191406 -0.476562 12.21875 -0.363281 12.21875 -0.25 C 12.21875 -0.15625 12.195312 -0.0625 12.15625 0.03125 C 12.101562 0.03125 12.050781 0 12 -0.0625 C 11.957031 -0.132812 11.914062 -0.171875 11.875 -0.171875 C 11.800781 -0.171875 11.765625 -0.148438 11.765625 -0.109375 C 11.765625 -0.078125 11.78125 -0.0390625 11.8125 0 C 11.851562 0.0390625 11.875 0.0859375 11.875 0.140625 C 11.875 0.179688 11.847656 0.203125 11.796875 0.203125 C 11.773438 0.203125 11.726562 0.171875 11.65625 0.109375 C 11.59375 0.0546875 11.535156 0.03125 11.484375 0.03125 C 11.328125 0.03125 11.265625 0.101562 11.296875 0.25 C 11.328125 0.40625 11.285156 0.5 11.171875 0.53125 C 11.035156 0.550781 10.945312 0.570312 10.90625 0.59375 C 10.875 0.613281 10.847656 0.625 10.828125 0.625 C 10.804688 0.625 10.773438 0.613281 10.734375 0.59375 C 10.703125 0.570312 10.640625 0.5625 10.546875 0.5625 C 10.523438 0.5625 10.5 0.578125 10.46875 0.609375 C 10.445312 0.640625 10.414062 0.65625 10.375 0.65625 C 10.300781 0.65625 10.238281 0.609375 10.1875 0.515625 C 10.144531 0.429688 10.085938 0.390625 10.015625 0.390625 C 9.785156 0.390625 9.578125 0.503906 9.390625 0.734375 C 9.203125 0.960938 9.039062 1.078125 8.90625 1.078125 C 8.738281 1.078125 8.644531 1.066406 8.625 1.046875 C 8.601562 1.023438 8.566406 1.015625 8.515625 1.015625 C 8.472656 1.015625 8.425781 1.023438 8.375 1.046875 C 8.144531 1.160156 7.882812 1.238281 7.59375 1.28125 C 7.300781 1.332031 7.0625 1.359375 6.875 1.359375 Z M 7.96875 -7.015625 C 7.9375 -6.972656 7.878906 -6.925781 7.796875 -6.875 C 7.722656 -6.832031 7.6875 -6.785156 7.6875 -6.734375 C 7.6875 -6.640625 7.722656 -6.578125 7.796875 -6.546875 C 7.878906 -6.515625 7.910156 -6.5 7.890625 -6.5 C 7.960938 -6.5 8.015625 -6.570312 8.046875 -6.71875 C 8.085938 -6.875 8.175781 -7 8.3125 -7.09375 C 8.519531 -7.207031 8.796875 -7.421875 9.140625 -7.734375 C 9.492188 -8.046875 9.671875 -8.332031 9.671875 -8.59375 C 9.671875 -8.78125 9.601562 -8.875 9.46875 -8.875 C 9.300781 -8.875 9.140625 -8.742188 8.984375 -8.484375 C 8.835938 -8.234375 8.707031 -7.976562 8.59375 -7.71875 C 8.476562 -7.457031 8.359375 -7.328125 8.234375 -7.328125 C 8.210938 -7.328125 8.195312 -7.335938 8.1875 -7.359375 C 8.175781 -7.390625 8.160156 -7.40625 8.140625 -7.40625 C 8.085938 -7.40625 8.046875 -7.335938 8.015625 -7.203125 C 7.984375 -7.078125 7.96875 -7.015625 7.96875 -7.015625 Z M 12.71875 -0.03125 C 12.625 -0.101562 12.546875 -0.160156 12.484375 -0.203125 C 12.421875 -0.253906 12.390625 -0.316406 12.390625 -0.390625 C 12.390625 -0.484375 12.425781 -0.570312 12.5 -0.65625 C 12.6875 -0.59375 12.832031 -0.539062 12.9375 -0.5 C 13.039062 -0.46875 13.09375 -0.429688 13.09375 -0.390625 C 13.09375 -0.316406 12.96875 -0.195312 12.71875 -0.03125 Z M 12.71875 -0.03125 "/></g></g></g><g fill="#f2ead8" fill-opacity="1"><g transform="translate(71.052212, 31.92401)"><g/></g></g><g fill="#f2ead8" fill-opacity="1"><g transform="translate(84.006966, 31.92401)"><g><path d="M 6.875 1.359375 C 6.507812 1.359375 5.992188 1.28125 5.328125 1.125 C 4.660156 0.976562 3.976562 0.742188 3.28125 0.421875 C 2.582031 0.0976562 1.992188 -0.328125 1.515625 -0.859375 C 1.035156 -1.398438 0.796875 -2.054688 0.796875 -2.828125 C 0.796875 -3.035156 0.878906 -3.382812 1.046875 -3.875 C 1.210938 -4.363281 1.40625 -4.816406 1.625 -5.234375 C 1.84375 -5.648438 2.046875 -5.859375 2.234375 -5.859375 C 2.554688 -5.859375 2.757812 -5.960938 2.84375 -6.171875 C 2.925781 -6.390625 3.070312 -6.566406 3.28125 -6.703125 C 3.394531 -6.796875 3.519531 -6.867188 3.65625 -6.921875 C 3.800781 -6.984375 3.882812 -7.085938 3.90625 -7.234375 C 3.90625 -7.367188 3.800781 -7.5 3.59375 -7.625 C 3.382812 -7.757812 3.28125 -7.90625 3.28125 -8.0625 C 3.28125 -8.25 3.390625 -8.398438 3.609375 -8.515625 C 3.835938 -8.640625 4.039062 -8.703125 4.21875 -8.703125 C 4.382812 -8.703125 4.523438 -8.609375 4.640625 -8.421875 C 4.753906 -8.234375 4.851562 -8.046875 4.9375 -7.859375 C 5.019531 -7.671875 5.0625 -7.554688 5.0625 -7.515625 C 5.0625 -7.367188 5.003906 -7.238281 4.890625 -7.125 C 4.773438 -7.007812 4.660156 -6.847656 4.546875 -6.640625 C 4.421875 -6.453125 4.316406 -6.21875 4.234375 -5.9375 C 4.160156 -5.65625 4.03125 -5.429688 3.84375 -5.265625 C 3.445312 -4.941406 3.25 -4.5625 3.25 -4.125 C 3.25 -3.976562 3.304688 -3.90625 3.421875 -3.90625 C 3.535156 -3.90625 3.675781 -3.941406 3.84375 -4.015625 C 4.632812 -4.410156 5.359375 -4.945312 6.015625 -5.625 C 6.679688 -6.300781 7.222656 -7.054688 7.640625 -7.890625 C 7.691406 -7.984375 7.78125 -8.144531 7.90625 -8.375 C 8.039062 -8.613281 8.164062 -8.863281 8.28125 -9.125 C 8.394531 -9.394531 8.453125 -9.601562 8.453125 -9.75 C 8.453125 -9.863281 8.394531 -9.925781 8.28125 -9.9375 C 8.164062 -9.945312 8.070312 -9.953125 8 -9.953125 C 7.601562 -9.953125 7.304688 -9.851562 7.109375 -9.65625 C 6.910156 -9.457031 6.765625 -9.257812 6.671875 -9.0625 C 6.578125 -8.863281 6.472656 -8.765625 6.359375 -8.765625 C 6.285156 -8.765625 6.207031 -8.78125 6.125 -8.8125 C 6.039062 -8.851562 5.96875 -8.875 5.90625 -8.875 C 5.757812 -8.875 5.625 -8.851562 5.5 -8.8125 C 5.375 -8.78125 5.226562 -8.765625 5.0625 -8.765625 C 5.019531 -8.765625 4.875 -8.789062 4.625 -8.84375 C 4.382812 -8.90625 4.265625 -8.992188 4.265625 -9.109375 C 4.265625 -9.234375 4.398438 -9.414062 4.671875 -9.65625 C 4.953125 -9.894531 5.175781 -10.03125 5.34375 -10.0625 L 6.640625 -11.421875 C 6.796875 -11.460938 6.957031 -11.546875 7.125 -11.671875 C 7.289062 -11.804688 7.460938 -11.875 7.640625 -11.875 C 7.734375 -11.875 7.828125 -11.851562 7.921875 -11.8125 C 8.015625 -11.78125 8.109375 -11.765625 8.203125 -11.765625 C 8.316406 -11.765625 8.414062 -11.773438 8.5 -11.796875 C 8.582031 -11.828125 8.632812 -11.84375 8.65625 -11.84375 C 8.726562 -11.84375 8.859375 -11.75 9.046875 -11.5625 L 9.890625 -10.796875 C 9.953125 -10.722656 9.984375 -10.617188 9.984375 -10.484375 C 9.984375 -10.335938 9.957031 -10.179688 9.90625 -10.015625 C 9.863281 -9.859375 9.84375 -9.722656 9.84375 -9.609375 C 9.84375 -9.460938 9.890625 -9.378906 9.984375 -9.359375 C 10.078125 -9.335938 10.125 -9.242188 10.125 -9.078125 C 10.125 -8.847656 10.0625 -8.582031 9.9375 -8.28125 C 9.8125 -7.976562 9.710938 -7.765625 9.640625 -7.640625 C 9.492188 -7.390625 9.289062 -7.070312 9.03125 -6.6875 C 8.78125 -6.300781 8.515625 -5.914062 8.234375 -5.53125 C 7.960938 -5.144531 7.726562 -4.820312 7.53125 -4.5625 C 7.332031 -4.3125 7.234375 -4.1875 7.234375 -4.1875 C 7.085938 -4.1875 6.84375 -4.0625 6.5 -3.8125 C 6.164062 -3.570312 5.820312 -3.300781 5.46875 -3 C 5.125 -2.695312 4.859375 -2.46875 4.671875 -2.3125 C 4.492188 -2.144531 4.226562 -2.039062 3.875 -2 C 3.53125 -1.96875 3.359375 -1.859375 3.359375 -1.671875 C 3.359375 -1.578125 3.4375 -1.484375 3.59375 -1.390625 L 4.5 -0.734375 C 4.832031 -0.503906 5.226562 -0.367188 5.6875 -0.328125 C 6.15625 -0.296875 6.578125 -0.269531 6.953125 -0.25 L 8.03125 -0.203125 C 8.5 -0.179688 8.96875 -0.257812 9.4375 -0.4375 C 9.914062 -0.613281 10.425781 -0.6875 10.96875 -0.65625 C 11.15625 -0.65625 11.269531 -0.644531 11.3125 -0.625 C 11.363281 -0.601562 11.457031 -0.523438 11.59375 -0.390625 L 11.625 -0.34375 C 11.675781 -0.34375 11.710938 -0.394531 11.734375 -0.5 C 11.753906 -0.601562 11.800781 -0.679688 11.875 -0.734375 C 11.894531 -0.753906 11.929688 -0.765625 11.984375 -0.765625 C 12.046875 -0.765625 12.097656 -0.707031 12.140625 -0.59375 C 12.191406 -0.476562 12.21875 -0.363281 12.21875 -0.25 C 12.21875 -0.15625 12.195312 -0.0625 12.15625 0.03125 C 12.101562 0.03125 12.050781 0 12 -0.0625 C 11.957031 -0.132812 11.914062 -0.171875 11.875 -0.171875 C 11.800781 -0.171875 11.765625 -0.148438 11.765625 -0.109375 C 11.765625 -0.078125 11.78125 -0.0390625 11.8125 0 C 11.851562 0.0390625 11.875 0.0859375 11.875 0.140625 C 11.875 0.179688 11.847656 0.203125 11.796875 0.203125 C 11.773438 0.203125 11.726562 0.171875 11.65625 0.109375 C 11.59375 0.0546875 11.535156 0.03125 11.484375 0.03125 C 11.328125 0.03125 11.265625 0.101562 11.296875 0.25 C 11.328125 0.40625 11.285156 0.5 11.171875 0.53125 C 11.035156 0.550781 10.945312 0.570312 10.90625 0.59375 C 10.875 0.613281 10.847656 0.625 10.828125 0.625 C 10.804688 0.625 10.773438 0.613281 10.734375 0.59375 C 10.703125 0.570312 10.640625 0.5625 10.546875 0.5625 C 10.523438 0.5625 10.5 0.578125 10.46875 0.609375 C 10.445312 0.640625 10.414062 0.65625 10.375 0.65625 C 10.300781 0.65625 10.238281 0.609375 10.1875 0.515625 C 10.144531 0.429688 10.085938 0.390625 10.015625 0.390625 C 9.785156 0.390625 9.578125 0.503906 9.390625 0.734375 C 9.203125 0.960938 9.039062 1.078125 8.90625 1.078125 C 8.738281 1.078125 8.644531 1.066406 8.625 1.046875 C 8.601562 1.023438 8.566406 1.015625 8.515625 1.015625 C 8.472656 1.015625 8.425781 1.023438 8.375 1.046875 C 8.144531 1.160156 7.882812 1.238281 7.59375 1.28125 C 7.300781 1.332031 7.0625 1.359375 6.875 1.359375 Z M 7.96875 -7.015625 C 7.9375 -6.972656 7.878906 -6.925781 7.796875 -6.875 C 7.722656 -6.832031 7.6875 -6.785156 7.6875 -6.734375 C 7.6875 -6.640625 7.722656 -6.578125 7.796875 -6.546875 C 7.878906 -6.515625 7.910156 -6.5 7.890625 -6.5 C 7.960938 -6.5 8.015625 -6.570312 8.046875 -6.71875 C 8.085938 -6.875 8.175781 -7 8.3125 -7.09375 C 8.519531 -7.207031 8.796875 -7.421875 9.140625 -7.734375 C 9.492188 -8.046875 9.671875 -8.332031 9.671875 -8.59375 C 9.671875 -8.78125 9.601562 -8.875 9.46875 -8.875 C 9.300781 -8.875 9.140625 -8.742188 8.984375 -8.484375 C 8.835938 -8.234375 8.707031 -7.976562 8.59375 -7.71875 C 8.476562 -7.457031 8.359375 -7.328125 8.234375 -7.328125 C 8.210938 -7.328125 8.195312 -7.335938 8.1875 -7.359375 C 8.175781 -7.390625 8.160156 -7.40625 8.140625 -7.40625 C 8.085938 -7.40625 8.046875 -7.335938 8.015625 -7.203125 C 7.984375 -7.078125 7.96875 -7.015625 7.96875 -7.015625 Z M 12.71875 -0.03125 C 12.625 -0.101562 12.546875 -0.160156 12.484375 -0.203125 C 12.421875 -0.253906 12.390625 -0.316406 12.390625 -0.390625 C 12.390625 -0.484375 12.425781 -0.570312 12.5 -0.65625 C 12.6875 -0.59375 12.832031 -0.539062 12.9375 -0.5 C 13.039062 -0.46875 13.09375 -0.429688 13.09375 -0.390625 C 13.09375 -0.316406 12.96875 -0.195312 12.71875 -0.03125 Z M 12.71875 -0.03125 "/></g></g></g><g fill="#f2ead8" fill-opacity="1"><g transform="translate(96.298278, 31.92401)"><g><path d="M 0.625 0.421875 C 0.53125 0.304688 0.46875 0.207031 0.4375 0.125 C 0.40625 0.0390625 0.410156 -0.0820312 0.453125 -0.25 C 0.546875 -0.457031 0.644531 -0.554688 0.75 -0.546875 C 0.851562 -0.535156 1.007812 -0.539062 1.21875 -0.5625 C 1.820312 -0.65625 2.320312 -0.78125 2.71875 -0.9375 C 3.113281 -1.101562 3.566406 -1.289062 4.078125 -1.5 C 4.171875 -1.550781 4.367188 -1.613281 4.671875 -1.6875 C 4.984375 -1.769531 5.140625 -1.867188 5.140625 -1.984375 C 5.140625 -2.242188 5.003906 -2.53125 4.734375 -2.84375 C 4.460938 -3.15625 4.148438 -3.519531 3.796875 -3.9375 C 3.453125 -4.363281 3.140625 -4.84375 2.859375 -5.375 C 2.628906 -5.84375 2.359375 -6.300781 2.046875 -6.75 C 1.734375 -7.207031 1.539062 -7.703125 1.46875 -8.234375 C 1.445312 -8.472656 1.453125 -8.75 1.484375 -9.0625 C 1.515625 -9.375 1.613281 -9.613281 1.78125 -9.78125 C 1.894531 -9.875 1.925781 -10 1.875 -10.15625 C 1.832031 -10.320312 1.820312 -10.488281 1.84375 -10.65625 C 1.894531 -10.8125 2.101562 -10.988281 2.46875 -11.1875 C 2.84375 -11.382812 3.234375 -11.546875 3.640625 -11.671875 C 4.054688 -11.804688 4.34375 -11.847656 4.5 -11.796875 C 5.132812 -11.660156 5.648438 -11.515625 6.046875 -11.359375 C 6.441406 -11.210938 6.753906 -10.984375 6.984375 -10.671875 C 7.210938 -10.359375 7.398438 -9.882812 7.546875 -9.25 C 7.566406 -9.207031 7.585938 -9.066406 7.609375 -8.828125 C 7.628906 -8.597656 7.632812 -8.398438 7.625 -8.234375 C 7.613281 -8.078125 7.539062 -8.046875 7.40625 -8.140625 C 7.382812 -8.179688 7.375 -8.242188 7.375 -8.328125 C 7.375 -8.410156 7.347656 -8.488281 7.296875 -8.5625 C 7.222656 -8.625 7.15625 -8.644531 7.09375 -8.625 C 7.039062 -8.601562 6.992188 -8.640625 6.953125 -8.734375 C 6.878906 -8.921875 6.800781 -9.097656 6.71875 -9.265625 C 6.632812 -9.441406 6.546875 -9.613281 6.453125 -9.78125 C 6.429688 -9.820312 6.390625 -9.816406 6.328125 -9.765625 C 6.273438 -9.722656 6.226562 -9.75 6.1875 -9.84375 C 6.25 -9.988281 6.175781 -10.128906 5.96875 -10.265625 C 5.875 -10.316406 5.8125 -10.3125 5.78125 -10.25 C 5.75 -10.1875 5.695312 -10.144531 5.625 -10.125 C 5.53125 -10.101562 5.4375 -10.144531 5.34375 -10.25 C 5.25 -10.351562 5.15625 -10.382812 5.0625 -10.34375 C 4.96875 -10.289062 4.960938 -10.222656 5.046875 -10.140625 C 5.128906 -10.054688 5.226562 -9.984375 5.34375 -9.921875 C 5.4375 -9.867188 5.492188 -9.8125 5.515625 -9.75 C 5.535156 -9.695312 5.453125 -9.695312 5.265625 -9.75 C 5.148438 -9.789062 4.988281 -9.828125 4.78125 -9.859375 C 4.570312 -9.898438 4.375 -9.921875 4.1875 -9.921875 C 3.75 -9.921875 3.441406 -9.796875 3.265625 -9.546875 C 3.085938 -9.304688 2.976562 -8.976562 2.9375 -8.5625 C 2.9375 -8.488281 2.960938 -8.328125 3.015625 -8.078125 C 3.078125 -7.835938 3.15625 -7.597656 3.25 -7.359375 C 3.34375 -7.128906 3.410156 -6.992188 3.453125 -6.953125 C 3.660156 -6.785156 3.828125 -6.570312 3.953125 -6.3125 C 4.085938 -6.0625 4.222656 -5.84375 4.359375 -5.65625 C 4.484375 -5.46875 4.628906 -5.273438 4.796875 -5.078125 C 4.972656 -4.878906 5.109375 -4.722656 5.203125 -4.609375 C 5.523438 -4.285156 5.828125 -3.929688 6.109375 -3.546875 C 6.390625 -3.160156 6.597656 -2.703125 6.734375 -2.171875 C 6.859375 -1.796875 6.835938 -1.488281 6.671875 -1.25 C 6.503906 -1.019531 6.316406 -0.753906 6.109375 -0.453125 C 6.015625 -0.335938 5.90625 -0.226562 5.78125 -0.125 C 5.65625 -0.0195312 5.5 0.0546875 5.3125 0.109375 C 5.164062 0.128906 5.03125 0.113281 4.90625 0.0625 C 4.78125 0.0195312 4.644531 0.0351562 4.5 0.109375 C 4.25 0.222656 3.992188 0.332031 3.734375 0.4375 C 3.484375 0.539062 3.21875 0.613281 2.9375 0.65625 C 2.84375 0.570312 2.84375 0.5 2.9375 0.4375 C 3.03125 0.375 3.085938 0.285156 3.109375 0.171875 C 3.128906 0.0976562 3.101562 0.0234375 3.03125 -0.046875 C 2.96875 -0.128906 2.9375 -0.132812 2.9375 -0.0625 C 2.9375 0.0507812 2.863281 0.1875 2.71875 0.34375 C 2.582031 0.507812 2.421875 0.640625 2.234375 0.734375 C 1.953125 0.753906 1.660156 0.769531 1.359375 0.78125 C 1.054688 0.789062 0.8125 0.671875 0.625 0.421875 Z M 1.890625 -9.609375 C 1.773438 -9.515625 1.757812 -9.394531 1.84375 -9.25 C 1.9375 -9.113281 2.03125 -9.046875 2.125 -9.046875 C 2.25 -9.046875 2.3125 -9.140625 2.3125 -9.328125 C 2.3125 -9.515625 2.269531 -9.632812 2.1875 -9.6875 C 2.101562 -9.75 2.003906 -9.722656 1.890625 -9.609375 Z M 1.890625 -9.609375 "/></g></g></g><g fill="#f2ead8" fill-opacity="1"><g transform="translate(105.865943, 31.92401)"><g><path d="M -0.03125 -12.296875 C -0.175781 -12.878906 -0.0390625 -13.304688 0.375 -13.578125 C 0.800781 -13.859375 1.257812 -14 1.75 -14 C 2.050781 -14 2.34375 -13.941406 2.625 -13.828125 C 2.570312 -13.734375 2.488281 -13.65625 2.375 -13.59375 C 2.257812 -13.539062 2.144531 -13.46875 2.03125 -13.375 C 1.9375 -13.28125 1.878906 -13.242188 1.859375 -13.265625 C 1.847656 -13.296875 1.773438 -13.320312 1.640625 -13.34375 C 1.410156 -13.363281 1.175781 -13.300781 0.9375 -13.15625 C 0.707031 -13.019531 0.675781 -12.847656 0.84375 -12.640625 C 0.90625 -12.566406 1.003906 -12.570312 1.140625 -12.65625 C 1.285156 -12.738281 1.394531 -12.734375 1.46875 -12.640625 C 1.539062 -12.566406 1.566406 -12.515625 1.546875 -12.484375 C 1.535156 -12.453125 1.578125 -12.410156 1.671875 -12.359375 C 1.859375 -12.222656 2.054688 -12.09375 2.265625 -11.96875 C 2.472656 -11.851562 2.6875 -11.738281 2.90625 -11.625 C 3.132812 -11.46875 3.441406 -11.273438 3.828125 -11.046875 C 4.210938 -10.828125 4.578125 -10.71875 4.921875 -10.71875 C 5.296875 -10.71875 5.566406 -10.867188 5.734375 -11.171875 C 5.753906 -11.285156 5.894531 -11.53125 6.15625 -11.90625 C 6.425781 -12.28125 6.703125 -12.660156 6.984375 -13.046875 C 7.265625 -13.429688 7.453125 -13.691406 7.546875 -13.828125 C 7.828125 -14.296875 8.070312 -14.757812 8.28125 -15.21875 C 8.488281 -15.6875 8.78125 -16.164062 9.15625 -16.65625 L 10.265625 -18.046875 C 10.640625 -18.515625 11.078125 -19.066406 11.578125 -19.703125 C 12.078125 -20.347656 12.570312 -20.992188 13.0625 -21.640625 C 13.550781 -22.296875 13.957031 -22.847656 14.28125 -23.296875 L 14.8125 -23.984375 C 14.925781 -24.128906 15.078125 -24.203125 15.265625 -24.203125 C 15.515625 -24.203125 15.695312 -24.117188 15.8125 -23.953125 C 15.882812 -23.859375 15.957031 -23.734375 16.03125 -23.578125 C 16.101562 -23.429688 16.078125 -23.3125 15.953125 -23.21875 C 15.910156 -23.175781 15.882812 -23.210938 15.875 -23.328125 C 15.863281 -23.441406 15.832031 -23.535156 15.78125 -23.609375 C 15.757812 -23.648438 15.703125 -23.671875 15.609375 -23.671875 C 15.515625 -23.671875 15.445312 -23.671875 15.40625 -23.671875 C 15.332031 -23.554688 15.265625 -23.441406 15.203125 -23.328125 C 15.148438 -23.210938 15.097656 -23.082031 15.046875 -22.9375 C 15.003906 -22.757812 15.0625 -22.679688 15.21875 -22.703125 C 15.382812 -22.722656 15.445312 -22.664062 15.40625 -22.53125 C 15.238281 -22.15625 15.007812 -21.753906 14.71875 -21.328125 C 14.425781 -20.910156 14.175781 -20.503906 13.96875 -20.109375 C 13.6875 -19.617188 13.320312 -19.085938 12.875 -18.515625 C 12.4375 -17.953125 12.007812 -17.398438 11.59375 -16.859375 C 11.175781 -16.328125 10.863281 -15.851562 10.65625 -15.4375 C 10.226562 -14.53125 9.769531 -13.75 9.28125 -13.09375 C 8.800781 -12.445312 8.328125 -11.757812 7.859375 -11.03125 C 7.785156 -10.9375 7.65625 -10.785156 7.46875 -10.578125 C 7.28125 -10.367188 7.222656 -10.21875 7.296875 -10.125 C 7.441406 -9.96875 7.648438 -9.863281 7.921875 -9.8125 C 8.253906 -9.71875 8.585938 -9.664062 8.921875 -9.65625 C 9.253906 -9.644531 9.585938 -9.601562 9.921875 -9.53125 C 9.960938 -9.53125 10.109375 -9.507812 10.359375 -9.46875 C 10.617188 -9.4375 10.878906 -9.425781 11.140625 -9.4375 C 11.398438 -9.457031 11.550781 -9.5 11.59375 -9.5625 C 11.632812 -9.613281 11.722656 -9.566406 11.859375 -9.421875 C 12.003906 -9.285156 12.066406 -9.179688 12.046875 -9.109375 C 12.023438 -9.046875 11.988281 -9.003906 11.9375 -8.984375 C 11.894531 -8.972656 11.882812 -8.945312 11.90625 -8.90625 C 11.957031 -8.851562 12.019531 -8.882812 12.09375 -9 C 12.175781 -9.125 12.21875 -9.140625 12.21875 -9.046875 C 12.195312 -8.765625 12.144531 -8.65625 12.0625 -8.71875 C 11.976562 -8.789062 11.878906 -8.804688 11.765625 -8.765625 C 11.671875 -8.742188 11.632812 -8.671875 11.65625 -8.546875 C 11.6875 -8.429688 11.644531 -8.4375 11.53125 -8.5625 C 11.476562 -8.625 11.46875 -8.707031 11.5 -8.8125 C 11.539062 -8.914062 11.503906 -8.945312 11.390625 -8.90625 C 11.242188 -8.851562 11.207031 -8.757812 11.28125 -8.625 C 11.351562 -8.550781 11.390625 -8.484375 11.390625 -8.421875 C 11.390625 -8.347656 11.296875 -8.3125 11.109375 -8.3125 C 10.921875 -8.3125 10.726562 -8.320312 10.53125 -8.34375 C 10.332031 -8.363281 10.1875 -8.375 10.09375 -8.375 C 9.8125 -8.351562 9.550781 -8.320312 9.3125 -8.28125 C 9.082031 -8.25 8.84375 -8.234375 8.59375 -8.234375 C 8.351562 -8.234375 8.097656 -8.269531 7.828125 -8.34375 C 7.585938 -8.394531 7.296875 -8.40625 6.953125 -8.375 C 6.617188 -8.351562 6.335938 -8.273438 6.109375 -8.140625 C 5.828125 -7.953125 5.632812 -7.679688 5.53125 -7.328125 C 5.425781 -6.984375 5.316406 -6.660156 5.203125 -6.359375 C 4.878906 -5.566406 4.546875 -4.757812 4.203125 -3.9375 C 3.867188 -3.125 3.617188 -2.289062 3.453125 -1.4375 C 3.410156 -1.195312 3.375 -0.953125 3.34375 -0.703125 C 3.320312 -0.460938 3.300781 -0.21875 3.28125 0.03125 C 3.28125 0.269531 3.347656 0.367188 3.484375 0.328125 C 3.628906 0.296875 3.796875 0.253906 3.984375 0.203125 C 4.191406 0.160156 4.445312 0.144531 4.75 0.15625 C 5.050781 0.164062 5.316406 0.132812 5.546875 0.0625 C 5.617188 0.0390625 5.644531 -0.00390625 5.625 -0.078125 C 5.601562 -0.160156 5.613281 -0.179688 5.65625 -0.140625 C 5.75 -0.0859375 5.753906 -0.0234375 5.671875 0.046875 C 5.585938 0.128906 5.5625 0.195312 5.59375 0.25 C 5.632812 0.3125 5.722656 0.3125 5.859375 0.25 C 6.003906 0.195312 6.085938 0.132812 6.109375 0.0625 C 6.160156 -0.0703125 6.140625 -0.132812 6.046875 -0.125 C 5.953125 -0.113281 5.890625 -0.1875 5.859375 -0.34375 C 5.835938 -0.507812 5.921875 -0.648438 6.109375 -0.765625 C 6.296875 -0.878906 6.4375 -0.84375 6.53125 -0.65625 C 6.570312 -0.539062 6.59375 -0.484375 6.59375 -0.484375 C 6.59375 -0.484375 6.570312 -0.4375 6.53125 -0.34375 C 6.476562 -0.28125 6.414062 -0.234375 6.34375 -0.203125 C 6.28125 -0.179688 6.296875 -0.132812 6.390625 -0.0625 C 6.429688 -0.0390625 6.46875 -0.0703125 6.5 -0.15625 C 6.539062 -0.238281 6.5625 -0.253906 6.5625 -0.203125 C 6.675781 0.046875 6.640625 0.195312 6.453125 0.25 C 6.429688 0.25 6.40625 0.222656 6.375 0.171875 C 6.34375 0.128906 6.300781 0.117188 6.25 0.140625 C 6.175781 0.160156 6.160156 0.207031 6.203125 0.28125 C 6.253906 0.351562 6.210938 0.375 6.078125 0.34375 C 5.910156 0.320312 5.816406 0.367188 5.796875 0.484375 C 5.773438 0.597656 5.707031 0.726562 5.59375 0.875 C 5.40625 1.125 5.207031 1.285156 5 1.359375 C 4.90625 1.378906 4.8125 1.390625 4.71875 1.390625 C 4.625 1.390625 4.566406 1.414062 4.546875 1.46875 C 4.515625 1.507812 4.5 1.546875 4.5 1.578125 C 4.5 1.617188 4.476562 1.640625 4.4375 1.640625 L 4.1875 1.578125 L 3.421875 1.78125 C 3.285156 1.78125 3.15625 1.789062 3.03125 1.8125 C 2.914062 1.832031 2.800781 1.800781 2.6875 1.71875 C 2.59375 1.59375 2.492188 1.53125 2.390625 1.53125 C 2.285156 1.53125 2.175781 1.484375 2.0625 1.390625 C 1.832031 1.160156 1.675781 0.878906 1.59375 0.546875 C 1.507812 0.222656 1.46875 -0.117188 1.46875 -0.484375 C 1.46875 -1.304688 1.597656 -2.171875 1.859375 -3.078125 C 2.128906 -3.984375 2.460938 -4.867188 2.859375 -5.734375 C 3.253906 -6.609375 3.640625 -7.398438 4.015625 -8.109375 C 4.222656 -8.523438 4.226562 -8.835938 4.03125 -9.046875 C 3.832031 -9.253906 3.554688 -9.421875 3.203125 -9.546875 C 2.859375 -9.679688 2.546875 -9.804688 2.265625 -9.921875 C 1.828125 -10.109375 1.367188 -10.421875 0.890625 -10.859375 C 0.410156 -11.304688 0.101562 -11.785156 -0.03125 -12.296875 Z M -0.03125 -12.296875 "/></g></g></g><g fill="#f2ead8" fill-opacity="1"><g transform="translate(116.970022, 31.92401)"><g><path d="M 0.796875 -2.6875 C 0.753906 -2.851562 0.78125 -3.03125 0.875 -3.21875 C 0.96875 -3.40625 1.023438 -3.578125 1.046875 -3.734375 C 1.140625 -4.015625 1.3125 -4.425781 1.5625 -4.96875 C 1.820312 -5.519531 2.035156 -5.984375 2.203125 -6.359375 C 2.273438 -6.546875 2.34375 -6.722656 2.40625 -6.890625 C 2.476562 -7.066406 2.5625 -7.238281 2.65625 -7.40625 C 2.75 -7.539062 2.851562 -7.671875 2.96875 -7.796875 C 3.082031 -7.929688 3.117188 -8.09375 3.078125 -8.28125 C 3.023438 -8.582031 3.117188 -8.847656 3.359375 -9.078125 C 3.492188 -9.242188 3.660156 -9.328125 3.859375 -9.328125 C 4.054688 -9.328125 4.238281 -9.34375 4.40625 -9.375 C 4.582031 -9.40625 4.695312 -9.515625 4.75 -9.703125 C 4.84375 -9.585938 4.894531 -9.375 4.90625 -9.0625 C 4.914062 -8.75 4.890625 -8.441406 4.828125 -8.140625 C 4.773438 -7.835938 4.691406 -7.613281 4.578125 -7.46875 C 4.222656 -7.007812 3.988281 -6.5 3.875 -5.9375 C 3.757812 -5.375 3.539062 -4.929688 3.21875 -4.609375 C 3.050781 -4.441406 2.972656 -4.226562 2.984375 -3.96875 C 2.992188 -3.71875 2.90625 -3.546875 2.71875 -3.453125 C 2.53125 -3.390625 2.457031 -3.28125 2.5 -3.125 C 2.550781 -2.976562 2.59375 -2.832031 2.625 -2.6875 C 2.664062 -2.550781 2.769531 -2.484375 2.9375 -2.484375 C 3.1875 -2.484375 3.515625 -2.609375 3.921875 -2.859375 C 4.335938 -3.117188 4.625 -3.269531 4.78125 -3.3125 C 5.039062 -3.40625 5.179688 -3.453125 5.203125 -3.453125 C 5.222656 -3.453125 5.351562 -3.535156 5.59375 -3.703125 C 6.125 -4.097656 6.75 -4.519531 7.46875 -4.96875 C 8.195312 -5.425781 8.835938 -5.945312 9.390625 -6.53125 C 9.628906 -6.757812 9.960938 -7.035156 10.390625 -7.359375 C 10.816406 -7.691406 11.265625 -7.976562 11.734375 -8.21875 C 12.203125 -8.46875 12.585938 -8.59375 12.890625 -8.59375 C 13.078125 -8.59375 13.238281 -8.53125 13.375 -8.40625 C 13.507812 -8.289062 13.59375 -8.097656 13.625 -7.828125 C 13.78125 -7.566406 13.8125 -7.226562 13.71875 -6.8125 C 13.625 -6.394531 13.484375 -5.988281 13.296875 -5.59375 C 13.117188 -5.195312 12.957031 -4.878906 12.8125 -4.640625 C 12.695312 -4.390625 12.601562 -4.132812 12.53125 -3.875 C 12.46875 -3.625 12.34375 -3.300781 12.15625 -2.90625 C 11.96875 -2.457031 11.773438 -2.125 11.578125 -1.90625 C 11.378906 -1.6875 11.226562 -1.503906 11.125 -1.359375 C 11.019531 -1.222656 11.015625 -1.023438 11.109375 -0.765625 C 11.148438 -0.628906 11.175781 -0.609375 11.1875 -0.703125 C 11.195312 -0.796875 11.238281 -0.84375 11.3125 -0.84375 C 11.5 -0.84375 11.554688 -0.765625 11.484375 -0.609375 C 11.421875 -0.460938 11.351562 -0.304688 11.28125 -0.140625 C 11.207031 0.0234375 11.242188 0.109375 11.390625 0.109375 C 11.546875 0.109375 11.675781 0.117188 11.78125 0.140625 C 11.882812 0.160156 11.9375 0.253906 11.9375 0.421875 C 11.9375 0.515625 11.957031 0.488281 12 0.34375 C 12.050781 0.207031 12.09375 0.160156 12.125 0.203125 C 12.257812 0.296875 12.273438 0.394531 12.171875 0.5 C 12.066406 0.601562 11.96875 0.75 11.875 0.9375 C 11.800781 1.082031 11.734375 1.140625 11.671875 1.109375 C 11.617188 1.085938 11.535156 1.101562 11.421875 1.15625 C 11.234375 1.195312 11.050781 1.222656 10.875 1.234375 C 10.695312 1.242188 10.519531 1.191406 10.34375 1.078125 C 10.25 1.015625 10.132812 0.859375 10 0.609375 C 9.875 0.367188 9.925781 0.203125 10.15625 0.109375 C 10.28125 0.0546875 10.375 -0.101562 10.4375 -0.375 C 10.507812 -0.65625 10.507812 -0.832031 10.4375 -0.90625 C 10.394531 -0.957031 10.332031 -0.953125 10.25 -0.890625 C 10.164062 -0.828125 10.101562 -0.8125 10.0625 -0.84375 C 9.851562 -0.957031 9.828125 -1.03125 9.984375 -1.0625 C 10.148438 -1.101562 10.234375 -1.15625 10.234375 -1.21875 C 10.253906 -1.40625 10.210938 -1.507812 10.109375 -1.53125 C 10.003906 -1.5625 9.914062 -1.59375 9.84375 -1.625 C 9.78125 -1.65625 9.769531 -1.773438 9.8125 -1.984375 C 9.863281 -2.148438 9.957031 -2.28125 10.09375 -2.375 C 10.226562 -2.46875 10.320312 -2.597656 10.375 -2.765625 C 10.488281 -3.066406 10.609375 -3.296875 10.734375 -3.453125 C 10.867188 -3.617188 10.976562 -3.875 11.0625 -4.21875 C 11.1875 -4.269531 11.269531 -4.179688 11.3125 -3.953125 C 11.363281 -3.734375 11.4375 -3.625 11.53125 -3.625 C 11.59375 -3.625 11.671875 -3.695312 11.765625 -3.84375 C 11.929688 -4.070312 11.910156 -4.238281 11.703125 -4.34375 C 11.492188 -4.445312 11.34375 -4.582031 11.25 -4.75 C 11.34375 -4.820312 11.410156 -4.914062 11.453125 -5.03125 C 11.503906 -5.144531 11.539062 -5.257812 11.5625 -5.375 C 11.601562 -5.539062 11.695312 -5.75 11.84375 -6 C 12 -6.257812 12.019531 -6.445312 11.90625 -6.5625 C 11.769531 -6.40625 11.59375 -6.296875 11.375 -6.234375 C 11.164062 -6.171875 10.972656 -6.082031 10.796875 -5.96875 C 10.609375 -5.925781 10.472656 -5.832031 10.390625 -5.6875 C 10.304688 -5.550781 10.207031 -5.425781 10.09375 -5.3125 C 9.882812 -5.125 9.59375 -4.898438 9.21875 -4.640625 C 8.84375 -4.390625 8.53125 -4.191406 8.28125 -4.046875 C 8.207031 -4.003906 8.046875 -3.894531 7.796875 -3.71875 C 7.554688 -3.539062 7.316406 -3.367188 7.078125 -3.203125 C 6.847656 -3.046875 6.710938 -2.929688 6.671875 -2.859375 C 6.578125 -2.742188 6.328125 -2.546875 5.921875 -2.265625 C 5.515625 -1.984375 5.082031 -1.703125 4.625 -1.421875 C 4.175781 -1.148438 3.820312 -0.941406 3.5625 -0.796875 C 3.394531 -0.703125 3.203125 -0.644531 2.984375 -0.625 C 2.765625 -0.601562 2.550781 -0.59375 2.34375 -0.59375 C 2.039062 -0.613281 1.738281 -0.71875 1.4375 -0.90625 C 1.132812 -1.09375 0.984375 -1.394531 0.984375 -1.8125 C 0.953125 -2 0.921875 -2.148438 0.890625 -2.265625 C 0.859375 -2.378906 0.828125 -2.519531 0.796875 -2.6875 Z M 3.984375 -10.375 C 3.929688 -10.46875 3.929688 -10.535156 3.984375 -10.578125 C 4.046875 -10.628906 4.101562 -10.6875 4.15625 -10.75 C 4.269531 -10.894531 4.375 -10.96875 4.46875 -10.96875 C 4.65625 -10.96875 4.804688 -10.769531 4.921875 -10.375 C 5.015625 -10.164062 4.976562 -10.003906 4.8125 -9.890625 C 4.8125 -10.023438 4.695312 -10.113281 4.46875 -10.15625 C 4.238281 -10.207031 4.078125 -10.28125 3.984375 -10.375 Z M 3.984375 -10.375 "/></g></g></g><g fill="#f2ead8" fill-opacity="1"><g transform="translate(132.578584, 31.92401)"><g><path d="M 1.1875 -0.453125 C 1.1875 -0.617188 1.113281 -0.769531 0.96875 -0.90625 C 0.832031 -1.050781 0.765625 -1.15625 0.765625 -1.21875 C 0.765625 -1.632812 0.910156 -2.1875 1.203125 -2.875 C 1.492188 -3.5625 1.769531 -4.128906 2.03125 -4.578125 C 2.332031 -5.066406 2.640625 -5.59375 2.953125 -6.15625 C 3.265625 -6.726562 3.613281 -7.222656 4 -7.640625 C 4.382812 -8.066406 4.804688 -8.3125 5.265625 -8.375 C 5.316406 -8.40625 5.289062 -8.34375 5.1875 -8.1875 C 5.082031 -8.039062 4.96875 -7.882812 4.84375 -7.71875 C 4.726562 -7.550781 4.695312 -7.445312 4.75 -7.40625 C 4.882812 -7.289062 5.007812 -7.289062 5.125 -7.40625 C 5.25 -7.519531 5.347656 -7.664062 5.421875 -7.84375 C 5.503906 -8.019531 5.570312 -8.109375 5.625 -8.109375 C 5.625 -7.960938 5.675781 -7.804688 5.78125 -7.640625 C 5.882812 -7.484375 5.957031 -7.328125 6 -7.171875 C 6.050781 -7.023438 5.972656 -6.867188 5.765625 -6.703125 C 5.503906 -6.515625 5.203125 -6.320312 4.859375 -6.125 C 4.523438 -5.925781 4.347656 -5.664062 4.328125 -5.34375 C 4.304688 -5.132812 4.195312 -4.847656 4 -4.484375 C 3.800781 -4.128906 3.664062 -3.859375 3.59375 -3.671875 C 3.476562 -3.429688 3.332031 -3.171875 3.15625 -2.890625 C 2.988281 -2.617188 2.859375 -2.351562 2.765625 -2.09375 C 2.671875 -1.84375 2.703125 -1.609375 2.859375 -1.390625 C 2.929688 -1.296875 3.054688 -1.300781 3.234375 -1.40625 C 3.410156 -1.519531 3.585938 -1.65625 3.765625 -1.8125 C 3.953125 -1.976562 4.09375 -2.082031 4.1875 -2.125 C 4.375 -2.21875 4.5625 -2.285156 4.75 -2.328125 C 4.9375 -2.378906 5.109375 -2.460938 5.265625 -2.578125 C 5.453125 -2.703125 5.585938 -2.789062 5.671875 -2.84375 C 5.753906 -2.90625 5.878906 -2.910156 6.046875 -2.859375 C 6.109375 -2.835938 6.195312 -2.78125 6.3125 -2.6875 C 6.4375 -2.59375 6.566406 -2.617188 6.703125 -2.765625 C 6.773438 -2.828125 6.773438 -2.929688 6.703125 -3.078125 C 6.628906 -3.234375 6.570312 -3.347656 6.53125 -3.421875 C 6.4375 -3.585938 6.394531 -3.617188 6.40625 -3.515625 C 6.414062 -3.410156 6.390625 -3.3125 6.328125 -3.21875 C 6.234375 -3.125 6.171875 -3.078125 6.140625 -3.078125 C 6.046875 -3.078125 5.984375 -3.210938 5.953125 -3.484375 C 5.921875 -3.765625 5.953125 -3.929688 6.046875 -3.984375 C 6.160156 -4.023438 6.269531 -4.097656 6.375 -4.203125 C 6.476562 -4.304688 6.578125 -4.375 6.671875 -4.40625 C 6.765625 -4.445312 6.785156 -4.367188 6.734375 -4.171875 C 6.691406 -3.972656 6.691406 -3.835938 6.734375 -3.765625 C 6.878906 -3.609375 6.976562 -3.640625 7.03125 -3.859375 C 7.09375 -4.078125 7.171875 -4.269531 7.265625 -4.4375 C 7.398438 -4.738281 7.617188 -4.992188 7.921875 -5.203125 C 8.128906 -5.367188 8.320312 -5.515625 8.5 -5.640625 C 8.675781 -5.765625 8.8125 -5.945312 8.90625 -6.1875 C 9.019531 -6.394531 9.1875 -6.550781 9.40625 -6.65625 C 9.632812 -6.757812 9.816406 -6.863281 9.953125 -6.96875 C 10.085938 -7.070312 10.078125 -7.226562 9.921875 -7.4375 C 9.828125 -7.550781 9.742188 -7.628906 9.671875 -7.671875 C 9.597656 -7.722656 9.539062 -7.820312 9.5 -7.96875 C 9.476562 -8.0625 9.441406 -8.148438 9.390625 -8.234375 C 9.347656 -8.328125 9.335938 -8.421875 9.359375 -8.515625 C 9.378906 -8.566406 9.515625 -8.59375 9.765625 -8.59375 C 10.023438 -8.59375 10.171875 -8.601562 10.203125 -8.625 C 10.242188 -8.695312 10.257812 -8.800781 10.25 -8.9375 C 10.238281 -9.082031 10.195312 -9.164062 10.125 -9.1875 C 10.007812 -9.207031 9.878906 -9.207031 9.734375 -9.1875 C 9.597656 -9.164062 9.492188 -9.222656 9.421875 -9.359375 C 9.378906 -9.472656 9.269531 -9.566406 9.09375 -9.640625 C 8.914062 -9.710938 8.75 -9.75 8.59375 -9.75 C 8.382812 -9.75 8.289062 -9.664062 8.3125 -9.5 C 8.238281 -9.425781 8.140625 -9.460938 8.015625 -9.609375 C 7.890625 -9.765625 7.734375 -9.84375 7.546875 -9.84375 C 7.453125 -9.84375 7.359375 -9.796875 7.265625 -9.703125 C 7.171875 -9.640625 7.179688 -9.570312 7.296875 -9.5 C 7.410156 -9.425781 7.535156 -9.359375 7.671875 -9.296875 C 7.816406 -9.242188 7.878906 -9.195312 7.859375 -9.15625 L 7.46875 -8.5625 C 7.445312 -8.46875 7.414062 -8.421875 7.375 -8.421875 C 7.28125 -8.421875 7.195312 -8.507812 7.125 -8.6875 C 7.050781 -8.875 6.96875 -8.984375 6.875 -9.015625 C 6.53125 -9.128906 6.332031 -9.171875 6.28125 -9.140625 C 6.238281 -9.117188 6.273438 -9.304688 6.390625 -9.703125 C 6.804688 -9.941406 7.203125 -10.160156 7.578125 -10.359375 C 7.953125 -10.554688 8.382812 -10.664062 8.875 -10.6875 C 9.0625 -10.707031 9.238281 -10.722656 9.40625 -10.734375 C 9.582031 -10.742188 9.753906 -10.726562 9.921875 -10.6875 C 10.316406 -10.59375 10.585938 -10.328125 10.734375 -9.890625 C 10.890625 -9.460938 10.941406 -8.9375 10.890625 -8.3125 L 11.984375 -9.421875 C 12.441406 -9.816406 12.859375 -10.253906 13.234375 -10.734375 C 13.609375 -11.210938 13.984375 -11.707031 14.359375 -12.21875 C 14.609375 -12.550781 14.859375 -12.882812 15.109375 -13.21875 C 15.367188 -13.550781 15.628906 -13.867188 15.890625 -14.171875 C 16.054688 -14.316406 16.164062 -14.398438 16.21875 -14.421875 C 16.28125 -14.441406 16.390625 -14.535156 16.546875 -14.703125 C 16.804688 -14.960938 17.007812 -15.242188 17.15625 -15.546875 C 17.3125 -15.847656 17.503906 -16.132812 17.734375 -16.40625 C 18.273438 -17.039062 18.863281 -17.800781 19.5 -18.6875 C 20.144531 -19.570312 20.640625 -20.410156 20.984375 -21.203125 C 21.242188 -21.640625 21.398438 -22.003906 21.453125 -22.296875 C 21.515625 -22.585938 21.6875 -22.734375 21.96875 -22.734375 C 22.007812 -22.734375 22.015625 -22.679688 21.984375 -22.578125 C 21.953125 -22.472656 21.96875 -22.421875 22.03125 -22.421875 C 22.59375 -22.347656 22.90625 -22.328125 22.96875 -22.359375 C 23.039062 -22.398438 22.988281 -22.472656 22.8125 -22.578125 C 22.644531 -22.679688 22.476562 -22.800781 22.3125 -22.9375 C 22.15625 -23.082031 22.117188 -23.222656 22.203125 -23.359375 C 22.390625 -23.617188 22.597656 -23.984375 22.828125 -24.453125 C 23.066406 -24.929688 23.300781 -25.253906 23.53125 -25.421875 C 23.695312 -25.515625 23.804688 -25.582031 23.859375 -25.625 C 23.921875 -25.675781 23.953125 -25.796875 23.953125 -25.984375 C 23.953125 -26.054688 23.976562 -26.113281 24.03125 -26.15625 C 24.09375 -26.195312 24.148438 -26.242188 24.203125 -26.296875 C 24.335938 -26.410156 24.507812 -26.46875 24.71875 -26.46875 C 24.925781 -26.46875 25.113281 -26.503906 25.28125 -26.578125 C 25.582031 -26.691406 25.859375 -26.644531 26.109375 -26.4375 C 26.367188 -26.226562 26.46875 -26.03125 26.40625 -25.84375 C 26.351562 -25.695312 26.253906 -25.523438 26.109375 -25.328125 C 25.972656 -25.128906 25.875 -24.972656 25.8125 -24.859375 C 25.71875 -24.648438 25.570312 -24.441406 25.375 -24.234375 C 25.175781 -24.023438 25.03125 -23.804688 24.9375 -23.578125 C 24.789062 -23.109375 24.617188 -22.695312 24.421875 -22.34375 C 24.222656 -22 23.972656 -21.628906 23.671875 -21.234375 C 23.367188 -20.835938 22.988281 -20.3125 22.53125 -19.65625 C 22.226562 -19.21875 21.941406 -18.753906 21.671875 -18.265625 C 21.398438 -17.773438 21.140625 -17.332031 20.890625 -16.9375 C 20.722656 -16.707031 20.546875 -16.382812 20.359375 -15.96875 C 20.171875 -15.5625 19.96875 -15.164062 19.75 -14.78125 C 19.53125 -14.40625 19.28125 -14.132812 19 -13.96875 C 18.925781 -13.945312 18.90625 -13.894531 18.9375 -13.8125 C 18.976562 -13.726562 18.988281 -13.628906 18.96875 -13.515625 C 18.875 -12.910156 18.660156 -12.304688 18.328125 -11.703125 C 18.003906 -11.097656 17.703125 -10.515625 17.421875 -9.953125 C 17.078125 -9.234375 16.804688 -8.382812 16.609375 -7.40625 C 16.410156 -6.425781 16.3125 -5.550781 16.3125 -4.78125 C 16.3125 -4.40625 16.273438 -4.015625 16.203125 -3.609375 C 16.128906 -3.203125 16.210938 -2.835938 16.453125 -2.515625 C 16.566406 -2.378906 16.722656 -2.234375 16.921875 -2.078125 C 17.117188 -1.921875 17.285156 -1.765625 17.421875 -1.609375 C 17.566406 -1.460938 17.582031 -1.300781 17.46875 -1.125 C 17.375 -0.9375 17.195312 -0.84375 16.9375 -0.84375 C 16.726562 -0.84375 16.53125 -0.898438 16.34375 -1.015625 C 16.175781 -1.128906 16.023438 -1.226562 15.890625 -1.3125 C 15.753906 -1.394531 15.59375 -1.445312 15.40625 -1.46875 C 15.164062 -1.632812 14.972656 -1.890625 14.828125 -2.234375 C 14.691406 -2.585938 14.59375 -2.878906 14.53125 -3.109375 C 14.414062 -3.617188 14.359375 -4.097656 14.359375 -4.546875 C 14.359375 -5.285156 14.457031 -6.03125 14.65625 -6.78125 C 14.851562 -7.539062 15.054688 -8.269531 15.265625 -8.96875 C 15.304688 -9.09375 15.382812 -9.335938 15.5 -9.703125 C 15.625 -10.078125 15.710938 -10.425781 15.765625 -10.75 C 15.828125 -11.082031 15.785156 -11.25 15.640625 -11.25 C 15.523438 -11.039062 15.34375 -10.851562 15.09375 -10.6875 C 14.851562 -10.519531 14.632812 -10.351562 14.4375 -10.1875 C 14.238281 -10.03125 14.148438 -9.820312 14.171875 -9.5625 C 14.171875 -9.5 14.0625 -9.335938 13.84375 -9.078125 C 13.625 -8.828125 13.367188 -8.535156 13.078125 -8.203125 C 12.785156 -7.878906 12.53125 -7.597656 12.3125 -7.359375 C 12.09375 -7.128906 11.984375 -7.015625 11.984375 -7.015625 C 11.835938 -6.878906 11.671875 -6.78125 11.484375 -6.71875 C 11.296875 -6.664062 11.144531 -6.546875 11.03125 -6.359375 C 10.988281 -6.285156 10.875 -6.15625 10.6875 -5.96875 C 10.5 -5.78125 10.289062 -5.6875 10.0625 -5.6875 C 9.96875 -5.6875 9.972656 -5.785156 10.078125 -5.984375 C 10.179688 -6.179688 10.207031 -6.28125 10.15625 -6.28125 C 10.113281 -6.28125 9.960938 -6.15625 9.703125 -5.90625 C 9.609375 -5.832031 9.625 -5.726562 9.75 -5.59375 C 9.882812 -5.46875 9.941406 -5.359375 9.921875 -5.265625 C 9.898438 -5.128906 9.8125 -5.015625 9.65625 -4.921875 C 9.5 -4.828125 9.363281 -4.863281 9.25 -5.03125 C 9.0625 -5.3125 8.90625 -5.425781 8.78125 -5.375 C 8.65625 -5.332031 8.6875 -5.179688 8.875 -4.921875 C 9.03125 -4.734375 9.128906 -4.628906 9.171875 -4.609375 C 9.222656 -4.585938 9.171875 -4.503906 9.015625 -4.359375 C 8.847656 -4.242188 8.691406 -4.160156 8.546875 -4.109375 C 8.410156 -4.066406 8.285156 -3.976562 8.171875 -3.84375 C 8.078125 -4.09375 7.9375 -4.203125 7.75 -4.171875 C 7.5625 -4.140625 7.597656 -3.957031 7.859375 -3.625 C 7.953125 -3.507812 7.929688 -3.476562 7.796875 -3.53125 C 7.671875 -3.59375 7.550781 -3.582031 7.4375 -3.5 C 7.394531 -3.46875 7.328125 -3.441406 7.234375 -3.421875 C 7.140625 -3.398438 7.113281 -3.34375 7.15625 -3.25 C 7.320312 -3.019531 7.320312 -2.75 7.15625 -2.4375 C 7 -2.132812 6.753906 -1.84375 6.421875 -1.5625 C 6.097656 -1.289062 5.789062 -1.054688 5.5 -0.859375 C 5.207031 -0.660156 5.003906 -0.550781 4.890625 -0.53125 C 4.585938 -0.476562 4.296875 -0.363281 4.015625 -0.1875 C 3.734375 -0.0195312 3.453125 0.128906 3.171875 0.265625 C 2.898438 0.410156 2.597656 0.460938 2.265625 0.421875 C 2.148438 0.398438 1.941406 0.296875 1.640625 0.109375 C 1.335938 -0.078125 1.1875 -0.265625 1.1875 -0.453125 Z M 8.140625 -5 C 8.085938 -4.925781 8.078125 -4.785156 8.109375 -4.578125 C 8.148438 -4.367188 8.191406 -4.21875 8.234375 -4.125 C 8.359375 -4.164062 8.503906 -4.222656 8.671875 -4.296875 C 8.847656 -4.367188 8.914062 -4.4375 8.875 -4.5 C 8.78125 -4.644531 8.660156 -4.773438 8.515625 -4.890625 C 8.378906 -5.003906 8.253906 -5.039062 8.140625 -5 Z M 9.109375 -5.625 C 9.046875 -5.53125 9.09375 -5.414062 9.25 -5.28125 C 9.414062 -5.15625 9.546875 -5.109375 9.640625 -5.140625 C 9.640625 -5.316406 9.582031 -5.476562 9.46875 -5.625 C 9.351562 -5.78125 9.234375 -5.78125 9.109375 -5.625 Z M 9.109375 -5.625 "/></g></g></g><g fill="#f2ead8" fill-opacity="1"><g transform="translate(152.447208, 31.92401)"><g><path d="M 0.875 -0.796875 C 0.757812 -1.191406 0.675781 -1.484375 0.625 -1.671875 C 0.582031 -1.859375 0.640625 -2.128906 0.796875 -2.484375 C 1.191406 -3.296875 1.550781 -4.097656 1.875 -4.890625 C 2.207031 -5.679688 2.609375 -6.414062 3.078125 -7.09375 C 3.441406 -7.625 3.609375 -8.085938 3.578125 -8.484375 C 3.546875 -8.878906 3.550781 -9.132812 3.59375 -9.25 C 3.644531 -9.363281 3.679688 -9.5 3.703125 -9.65625 C 3.722656 -9.8125 3.78125 -9.945312 3.875 -10.0625 C 4.007812 -10.21875 4.171875 -10.296875 4.359375 -10.296875 C 4.523438 -10.296875 4.703125 -10.238281 4.890625 -10.125 C 5.117188 -10.007812 5.222656 -9.898438 5.203125 -9.796875 C 5.179688 -9.691406 5.171875 -9.546875 5.171875 -9.359375 C 5.171875 -9.285156 5.203125 -9.269531 5.265625 -9.3125 C 5.335938 -9.363281 5.398438 -9.378906 5.453125 -9.359375 C 5.492188 -9.335938 5.484375 -9.222656 5.421875 -9.015625 C 5.367188 -8.804688 5.285156 -8.664062 5.171875 -8.59375 C 5.097656 -8.539062 5.101562 -8.484375 5.1875 -8.421875 C 5.269531 -8.367188 5.285156 -8.304688 5.234375 -8.234375 C 5.171875 -8.148438 5.054688 -8.0625 4.890625 -7.96875 C 4.722656 -7.875 4.675781 -7.78125 4.75 -7.6875 C 4.789062 -7.632812 4.847656 -7.644531 4.921875 -7.71875 C 4.992188 -7.789062 5.03125 -7.78125 5.03125 -7.6875 C 5.03125 -7.125 4.878906 -6.59375 4.578125 -6.09375 C 4.273438 -5.59375 3.992188 -5.109375 3.734375 -4.640625 C 3.617188 -4.410156 3.507812 -4.175781 3.40625 -3.9375 C 3.300781 -3.707031 3.222656 -3.46875 3.171875 -3.21875 C 3.109375 -2.976562 3.015625 -2.757812 2.890625 -2.5625 C 2.773438 -2.363281 2.648438 -2.125 2.515625 -1.84375 C 2.347656 -1.476562 2.253906 -1.128906 2.234375 -0.796875 C 2.210938 -0.472656 2.003906 -0.207031 1.609375 0 C 1.441406 0.0703125 1.285156 -0.00390625 1.140625 -0.234375 C 1.003906 -0.472656 0.914062 -0.660156 0.875 -0.796875 Z M 9.84375 -20.1875 C 9.65625 -20.28125 9.609375 -20.40625 9.703125 -20.5625 C 9.796875 -20.726562 9.832031 -20.867188 9.8125 -20.984375 C 9.789062 -21.453125 9.832031 -21.894531 9.9375 -22.3125 C 10.039062 -22.726562 10.222656 -23.03125 10.484375 -23.21875 C 10.691406 -23.363281 10.898438 -23.4375 11.109375 -23.4375 C 11.242188 -23.4375 11.425781 -23.378906 11.65625 -23.265625 C 11.84375 -23.140625 12.039062 -23.035156 12.25 -22.953125 C 12.46875 -22.878906 12.664062 -22.785156 12.84375 -22.671875 C 13.03125 -22.578125 13.125 -22.46875 13.125 -22.34375 C 13.125 -22.226562 13.171875 -22.140625 13.265625 -22.078125 C 13.523438 -21.910156 13.570312 -21.675781 13.40625 -21.375 C 13.34375 -21.257812 13.273438 -21.203125 13.203125 -21.203125 C 13.109375 -21.203125 13.003906 -21.273438 12.890625 -21.421875 C 12.773438 -21.578125 12.644531 -21.628906 12.5 -21.578125 C 12.40625 -21.554688 12.367188 -21.519531 12.390625 -21.46875 C 12.421875 -21.425781 12.390625 -21.414062 12.296875 -21.4375 C 12.222656 -21.488281 12.179688 -21.566406 12.171875 -21.671875 C 12.160156 -21.773438 12.097656 -21.835938 11.984375 -21.859375 C 11.910156 -21.878906 11.847656 -21.863281 11.796875 -21.8125 C 11.753906 -21.769531 11.707031 -21.765625 11.65625 -21.796875 C 11.613281 -21.835938 11.582031 -21.898438 11.5625 -21.984375 C 11.539062 -22.066406 11.550781 -22.117188 11.59375 -22.140625 C 11.664062 -22.160156 11.726562 -22.144531 11.78125 -22.09375 C 11.84375 -22.050781 11.882812 -22.046875 11.90625 -22.078125 C 11.957031 -22.117188 11.972656 -22.207031 11.953125 -22.34375 C 11.941406 -22.488281 11.90625 -22.570312 11.84375 -22.59375 C 11.75 -22.644531 11.679688 -22.613281 11.640625 -22.5 C 11.609375 -22.394531 11.546875 -22.332031 11.453125 -22.3125 C 11.359375 -22.289062 11.28125 -22.375 11.21875 -22.5625 C 11.164062 -22.75 11.082031 -22.757812 10.96875 -22.59375 C 10.988281 -22.613281 10.941406 -22.570312 10.828125 -22.46875 C 10.710938 -22.363281 10.703125 -22.289062 10.796875 -22.25 C 10.859375 -22.21875 10.9375 -22.210938 11.03125 -22.234375 C 11.125 -22.265625 11.195312 -22.253906 11.25 -22.203125 C 11.4375 -22.085938 11.488281 -21.953125 11.40625 -21.796875 C 11.320312 -21.648438 11.222656 -21.554688 11.109375 -21.515625 L 10.546875 -21.375 C 10.265625 -21.257812 10.132812 -21.140625 10.15625 -21.015625 C 10.1875 -20.898438 10.117188 -20.765625 9.953125 -20.609375 C 9.910156 -20.554688 9.921875 -20.453125 9.984375 -20.296875 C 10.054688 -20.148438 10.007812 -20.113281 9.84375 -20.1875 Z M 10.40625 -19.3125 C 10.3125 -19.332031 10.242188 -19.394531 10.203125 -19.5 C 10.171875 -19.601562 10.21875 -19.679688 10.34375 -19.734375 C 10.40625 -19.773438 10.472656 -19.785156 10.546875 -19.765625 C 10.617188 -19.742188 10.65625 -19.6875 10.65625 -19.59375 C 10.625 -19.570312 10.585938 -19.519531 10.546875 -19.4375 C 10.503906 -19.351562 10.457031 -19.3125 10.40625 -19.3125 Z M 10.65625 -19.3125 C 10.695312 -19.332031 10.726562 -19.363281 10.75 -19.40625 C 10.78125 -19.457031 10.804688 -19.492188 10.828125 -19.515625 C 10.941406 -19.640625 11.003906 -19.675781 11.015625 -19.625 C 11.023438 -19.582031 11.03125 -19.5 11.03125 -19.375 C 11.03125 -19.28125 10.984375 -19.238281 10.890625 -19.25 C 10.796875 -19.269531 10.71875 -19.289062 10.65625 -19.3125 Z M 10.65625 -19.3125 "/></g></g></g><g fill="#f2ead8" fill-opacity="1"><g transform="translate(159.361064, 31.92401)"><g><path d="M 1.921875 0.90625 C 1.472656 0.582031 1.164062 0.1875 1 -0.28125 C 0.84375 -0.75 0.765625 -1.25 0.765625 -1.78125 C 0.765625 -2.175781 0.789062 -2.578125 0.84375 -2.984375 C 0.90625 -3.390625 0.984375 -3.789062 1.078125 -4.1875 C 1.191406 -4.632812 1.382812 -5.144531 1.65625 -5.71875 C 1.925781 -6.300781 2.25 -6.742188 2.625 -7.046875 C 2.8125 -7.210938 2.941406 -7.3125 3.015625 -7.34375 C 3.097656 -7.382812 3.1875 -7.484375 3.28125 -7.640625 C 3.351562 -7.765625 3.4375 -7.828125 3.53125 -7.828125 C 3.644531 -7.828125 3.753906 -7.78125 3.859375 -7.6875 C 3.960938 -7.59375 4.070312 -7.59375 4.1875 -7.6875 C 4.300781 -7.800781 4.316406 -7.910156 4.234375 -8.015625 C 4.160156 -8.117188 4.078125 -8.226562 3.984375 -8.34375 C 3.890625 -8.457031 3.890625 -8.585938 3.984375 -8.734375 C 4.171875 -8.921875 4.328125 -9.019531 4.453125 -9.03125 C 4.578125 -9.039062 4.734375 -9.09375 4.921875 -9.1875 C 5.179688 -9.34375 5.460938 -9.53125 5.765625 -9.75 C 6.066406 -9.976562 6.359375 -10.09375 6.640625 -10.09375 C 6.753906 -10.09375 6.890625 -10.035156 7.046875 -9.921875 C 7.234375 -9.753906 7.316406 -9.648438 7.296875 -9.609375 C 7.273438 -9.578125 7.359375 -9.515625 7.546875 -9.421875 C 7.734375 -9.359375 7.851562 -9.195312 7.90625 -8.9375 C 7.96875 -8.6875 7.984375 -8.421875 7.953125 -8.140625 C 7.929688 -7.859375 7.890625 -7.648438 7.828125 -7.515625 C 7.773438 -7.441406 7.71875 -7.390625 7.65625 -7.359375 C 7.601562 -7.335938 7.585938 -7.296875 7.609375 -7.234375 C 7.660156 -7.109375 7.640625 -6.992188 7.546875 -6.890625 C 7.453125 -6.785156 7.347656 -6.78125 7.234375 -6.875 C 7.085938 -6.988281 6.941406 -7.054688 6.796875 -7.078125 C 6.660156 -7.109375 6.59375 -7.273438 6.59375 -7.578125 C 6.570312 -7.691406 6.554688 -7.863281 6.546875 -8.09375 C 6.535156 -8.332031 6.4375 -8.40625 6.25 -8.3125 C 6.0625 -8.238281 5.878906 -8.101562 5.703125 -7.90625 C 5.535156 -7.707031 5.375 -7.550781 5.21875 -7.4375 C 5.070312 -7.320312 4.9375 -7.3125 4.8125 -7.40625 L 4.546875 -7.71875 C 4.304688 -7.601562 4.203125 -7.507812 4.234375 -7.4375 C 4.273438 -7.363281 4.351562 -7.296875 4.46875 -7.234375 C 4.582031 -7.179688 4.640625 -7.085938 4.640625 -6.953125 C 4.640625 -6.710938 4.523438 -6.503906 4.296875 -6.328125 C 4.128906 -6.109375 3.960938 -5.945312 3.796875 -5.84375 C 3.640625 -5.738281 3.515625 -5.5625 3.421875 -5.3125 C 3.304688 -4.820312 3.113281 -4.359375 2.84375 -3.921875 C 2.570312 -3.492188 2.378906 -3.015625 2.265625 -2.484375 C 2.171875 -1.898438 2.253906 -1.40625 2.515625 -1 C 2.773438 -0.59375 3.226562 -0.390625 3.875 -0.390625 C 4.289062 -0.390625 4.785156 -0.472656 5.359375 -0.640625 C 5.929688 -0.816406 6.414062 -1.054688 6.8125 -1.359375 C 7.132812 -1.617188 7.472656 -1.875 7.828125 -2.125 C 8.191406 -2.382812 8.523438 -2.664062 8.828125 -2.96875 C 8.898438 -3.039062 9.003906 -3.140625 9.140625 -3.265625 C 9.285156 -3.390625 9.425781 -3.488281 9.5625 -3.5625 C 9.707031 -3.632812 9.78125 -3.613281 9.78125 -3.5 C 9.78125 -3.425781 9.738281 -3.367188 9.65625 -3.328125 C 9.570312 -3.296875 9.566406 -3.269531 9.640625 -3.25 C 9.847656 -3.15625 10.0625 -3.210938 10.28125 -3.421875 C 10.5 -3.628906 10.703125 -3.882812 10.890625 -4.1875 C 11.078125 -4.488281 11.21875 -4.722656 11.3125 -4.890625 C 11.570312 -5.285156 11.789062 -5.691406 11.96875 -6.109375 C 12.15625 -6.523438 12.066406 -6.957031 11.703125 -7.40625 C 11.535156 -7.59375 11.484375 -7.710938 11.546875 -7.765625 C 11.617188 -7.828125 11.695312 -7.882812 11.78125 -7.9375 C 11.863281 -8 11.859375 -8.113281 11.765625 -8.28125 C 11.691406 -8.375 11.632812 -8.421875 11.59375 -8.421875 C 11.5 -8.421875 11.394531 -8.332031 11.28125 -8.15625 C 11.164062 -7.976562 10.976562 -7.9375 10.71875 -8.03125 C 10.5625 -8.082031 10.507812 -8.148438 10.5625 -8.234375 C 10.625 -8.328125 10.628906 -8.4375 10.578125 -8.5625 C 10.535156 -8.625 10.445312 -8.640625 10.3125 -8.609375 C 10.1875 -8.578125 10.101562 -8.535156 10.0625 -8.484375 C 10.03125 -8.441406 10.03125 -8.398438 10.0625 -8.359375 C 10.101562 -8.328125 10.101562 -8.300781 10.0625 -8.28125 C 9.945312 -8.25 9.875 -8.3125 9.84375 -8.46875 C 9.820312 -8.625 9.765625 -8.664062 9.671875 -8.59375 C 9.535156 -8.445312 9.46875 -8.320312 9.46875 -8.21875 C 9.46875 -8.113281 9.457031 -8.003906 9.4375 -7.890625 C 9.425781 -7.773438 9.316406 -7.613281 9.109375 -7.40625 C 8.992188 -7.257812 8.890625 -7.148438 8.796875 -7.078125 C 8.703125 -7.015625 8.597656 -7.03125 8.484375 -7.125 C 8.410156 -7.164062 8.414062 -7.191406 8.5 -7.203125 C 8.582031 -7.222656 8.613281 -7.265625 8.59375 -7.328125 C 8.5 -7.703125 8.453125 -7.945312 8.453125 -8.0625 C 8.453125 -8.175781 8.507812 -8.316406 8.625 -8.484375 C 8.832031 -8.710938 9.039062 -8.863281 9.25 -8.9375 C 9.4375 -9.007812 9.546875 -8.976562 9.578125 -8.84375 C 9.617188 -8.71875 9.6875 -8.703125 9.78125 -8.796875 C 9.851562 -8.867188 9.847656 -8.929688 9.765625 -8.984375 C 9.679688 -9.046875 9.6875 -9.085938 9.78125 -9.109375 C 9.820312 -9.140625 9.867188 -9.113281 9.921875 -9.03125 C 9.984375 -8.945312 10.039062 -8.914062 10.09375 -8.9375 C 10.226562 -8.988281 10.3125 -9.09375 10.34375 -9.25 C 10.382812 -9.414062 10.472656 -9.519531 10.609375 -9.5625 C 10.796875 -9.613281 11.125 -9.582031 11.59375 -9.46875 C 12.0625 -9.351562 12.375 -9.234375 12.53125 -9.109375 C 12.789062 -8.972656 12.929688 -8.8125 12.953125 -8.625 C 12.972656 -8.4375 13.066406 -8.238281 13.234375 -8.03125 C 13.347656 -7.84375 13.421875 -7.664062 13.453125 -7.5 C 13.492188 -7.34375 13.476562 -7.160156 13.40625 -6.953125 C 13.21875 -6.367188 13.03125 -5.804688 12.84375 -5.265625 C 12.664062 -4.734375 12.398438 -4.234375 12.046875 -3.765625 C 11.953125 -3.648438 11.859375 -3.613281 11.765625 -3.65625 C 11.671875 -3.707031 11.585938 -3.753906 11.515625 -3.796875 C 11.453125 -3.847656 11.410156 -3.816406 11.390625 -3.703125 C 11.359375 -3.535156 11.40625 -3.453125 11.53125 -3.453125 C 11.664062 -3.453125 11.640625 -3.375 11.453125 -3.21875 C 11.335938 -3.125 11.226562 -3.035156 11.125 -2.953125 C 11.019531 -2.867188 10.910156 -2.769531 10.796875 -2.65625 C 10.722656 -2.582031 10.585938 -2.394531 10.390625 -2.09375 C 10.191406 -1.789062 10.035156 -1.59375 9.921875 -1.5 C 9.753906 -1.332031 9.492188 -1.164062 9.140625 -1 C 8.796875 -0.84375 8.585938 -0.707031 8.515625 -0.59375 C 8.398438 -0.382812 8.148438 -0.171875 7.765625 0.046875 C 7.378906 0.273438 7 0.460938 6.625 0.609375 C 6.257812 0.765625 5.992188 0.863281 5.828125 0.90625 C 5.390625 0.976562 5.003906 1.039062 4.671875 1.09375 C 4.347656 1.15625 3.957031 1.164062 3.5 1.125 C 3.28125 1.09375 3.007812 1.070312 2.6875 1.0625 C 2.363281 1.050781 2.109375 1 1.921875 0.90625 Z M 1.921875 0.90625 "/></g></g></g></g></g></g></g></g></g></g></svg>